<svg width="184" height="46" viewBox="0 0 184 46" fill="none" xmlns="http://www.w3.org/2000/svg">
<path d="M0 24L20 14V34L0 24Z" fill="url(#paint0_linear_19_13)"/>
<path d="M15 24L35 14V34L15 24Z" fill="url(#paint1_linear_19_13)"/>
<path d="M45 36C51.6274 36 57 30.6274 57 24C57 17.3726 51.6274 12 45 12C38.3726 12 33 17.3726 33 24C33 30.6274 38.3726 36 45 36Z" stroke="url(#paint2_linear_19_13)" stroke-width="3"/>
<path d="M42 24H48" stroke="url(#paint3_linear_19_13)" stroke-width="3"/>
<path d="M78.3942 17.3118C78.2862 16.2232 77.8229 15.3776 77.0043 14.7749C76.1856 14.1721 75.0746 13.8707 73.6712 13.8707C72.7176 13.8707 71.9124 14.0057 71.2557 14.2756C70.599 14.5365 70.0952 14.9008 69.7443 15.3686C69.4025 15.8364 69.2315 16.3672 69.2315 16.9609C69.2135 17.4557 69.317 17.8875 69.5419 18.2564C69.7758 18.6252 70.0952 18.9446 70.5 19.2145C70.9048 19.4754 71.3726 19.7048 71.9034 19.9027C72.4342 20.0916 73.0009 20.2536 73.6037 20.3885L76.0866 20.9822C77.2921 21.2521 78.3987 21.612 79.4062 22.0618C80.4138 22.5116 81.2865 23.0649 82.0241 23.7216C82.7618 24.3783 83.3331 25.152 83.7379 26.0426C84.1518 26.9332 84.3632 27.9543 84.3722 29.1058C84.3632 30.7971 83.9313 32.2635 83.0767 33.505C82.2311 34.7375 81.0076 35.6955 79.4062 36.3793C77.8139 37.054 75.8932 37.3913 73.6442 37.3913C71.4131 37.3913 69.4699 37.0495 67.8146 36.3658C66.1683 35.6821 64.8819 34.67 63.9553 33.3295C63.0376 31.9801 62.5563 30.3113 62.5114 28.3232H68.1655C68.2285 29.2498 68.4938 30.0234 68.9616 30.6442C69.4384 31.2559 70.0727 31.7192 70.8643 32.0341C71.665 32.34 72.5691 32.4929 73.5767 32.4929C74.5663 32.4929 75.4254 32.349 76.1541 32.0611C76.8918 31.7732 77.4631 31.3729 77.8679 30.8601C78.2727 30.3473 78.4751 29.758 78.4751 29.0923C78.4751 28.4716 78.2907 27.9498 77.9219 27.527C77.562 27.1042 77.0313 26.7443 76.3295 26.4474C75.6368 26.1506 74.7867 25.8807 73.7791 25.6378L70.7699 24.8821C68.4399 24.3153 66.6001 23.4292 65.2507 22.2237C63.9013 21.0182 63.2311 19.3944 63.2401 17.3523C63.2311 15.679 63.6764 14.2171 64.576 12.9666C65.4846 11.7161 66.7306 10.7401 68.3139 10.0384C69.8973 9.33665 71.6965 8.98579 73.7116 8.98579C75.7628 8.98579 77.553 9.33665 79.0824 10.0384C80.6207 10.7401 81.8172 11.7161 82.6719 12.9666C83.5265 14.2171 83.9673 15.6655 83.9943 17.3118H78.3942ZM93.943 25.017V37H88.1944V16.2727H93.6731V19.9297H93.916C94.3748 18.7242 95.144 17.7706 96.2235 17.0689C97.3031 16.3582 98.612 16.0028 100.15 16.0028C101.59 16.0028 102.845 16.3177 103.915 16.9474C104.986 17.5772 105.818 18.4768 106.412 19.6463C107.006 20.8068 107.302 22.1922 107.302 23.8026V37H101.554V24.8281C101.563 23.5597 101.239 22.5701 100.582 21.8594C99.9255 21.1397 99.0214 20.7798 97.8699 20.7798C97.0962 20.7798 96.4125 20.9463 95.8187 21.2791C95.234 21.612 94.7752 22.0978 94.4423 22.7365C94.1184 23.3662 93.952 24.1264 93.943 25.017ZM111.833 37V16.2727H117.582V37H111.833ZM114.721 13.6009C113.866 13.6009 113.133 13.3175 112.521 12.7507C111.919 12.175 111.617 11.4867 111.617 10.6861C111.617 9.89441 111.919 9.2152 112.521 8.64844C113.133 8.07268 113.866 7.7848 114.721 7.7848C115.576 7.7848 116.304 8.07268 116.907 8.64844C117.519 9.2152 117.825 9.89441 117.825 10.6861C117.825 11.4867 117.519 12.175 116.907 12.7507C116.304 13.3175 115.576 13.6009 114.721 13.6009Z" fill="black"/>
<path d="M122.187 44.7727V16.2727H127.854V19.7543H128.111C128.363 19.1965 128.727 18.6297 129.204 18.054C129.689 17.4692 130.319 16.9834 131.093 16.5966C131.876 16.2008 132.847 16.0028 134.008 16.0028C135.519 16.0028 136.913 16.3987 138.191 17.1903C139.468 17.973 140.489 19.156 141.254 20.7393C142.019 22.3137 142.401 24.2884 142.401 26.6634C142.401 28.9754 142.028 30.9276 141.281 32.5199C140.543 34.1032 139.536 35.3042 138.258 36.1229C136.99 36.9325 135.568 37.3374 133.994 37.3374C132.879 37.3374 131.93 37.1529 131.147 36.7841C130.373 36.4152 129.739 35.9519 129.244 35.3942C128.749 34.8274 128.372 34.2562 128.111 33.6804H127.935V44.7727H122.187ZM127.814 26.6364C127.814 27.8688 127.985 28.9439 128.327 29.8615C128.668 30.7791 129.163 31.4943 129.811 32.0071C130.459 32.5109 131.246 32.7628 132.172 32.7628C133.108 32.7628 133.9 32.5064 134.547 31.9936C135.195 31.4718 135.685 30.7521 136.018 29.8345C136.36 28.9079 136.531 27.8419 136.531 26.6364C136.531 25.4399 136.365 24.3873 136.032 23.4787C135.699 22.5701 135.209 21.8594 134.561 21.3466C133.913 20.8338 133.117 20.5774 132.172 20.5774C131.237 20.5774 130.445 20.8248 129.797 21.3196C129.159 21.8144 128.668 22.5161 128.327 23.4247C127.985 24.3333 127.814 25.4039 127.814 26.6364ZM151.982 9.36364V37H146.233V9.36364H151.982ZM160.136 44.7727C159.407 44.7727 158.724 44.7143 158.085 44.5973C157.455 44.4893 156.933 44.3499 156.52 44.179L157.815 39.8878C158.49 40.0947 159.097 40.2071 159.637 40.2251C160.185 40.2431 160.658 40.1172 161.054 39.8473C161.458 39.5774 161.787 39.1186 162.039 38.4709L162.376 37.5938L154.941 16.2727H160.986L165.277 31.4943H165.493L169.825 16.2727H175.911L167.855 39.2401C167.468 40.3556 166.942 41.3272 166.276 42.1548C165.619 42.9915 164.787 43.6347 163.779 44.0845C162.772 44.5433 161.557 44.7727 160.136 44.7727Z" fill="#6D5CE7"/>
<path d="M180 40C182.209 40 184 38.2091 184 36C184 33.7909 182.209 32 180 32C177.791 32 176 33.7909 176 36C176 38.2091 177.791 40 180 40Z" fill="url(#paint4_linear_19_13)"/>
<defs>
<linearGradient id="paint0_linear_19_13" x1="0" y1="14" x2="2000" y2="2014" gradientUnits="userSpaceOnUse">
<stop stop-color="#6C5CE7"/>
<stop offset="1" stop-color="#A55EEA"/>
</linearGradient>
<linearGradient id="paint1_linear_19_13" x1="15" y1="14" x2="2015" y2="2014" gradientUnits="userSpaceOnUse">
<stop stop-color="#6C5CE7"/>
<stop offset="1" stop-color="#A55EEA"/>
</linearGradient>
<linearGradient id="paint2_linear_19_13" x1="33" y1="12" x2="2433" y2="2412" gradientUnits="userSpaceOnUse">
<stop stop-color="#6C5CE7"/>
<stop offset="1" stop-color="#A55EEA"/>
</linearGradient>
<linearGradient id="paint3_linear_19_13" x1="-nan" y1="-nan" x2="-nan" y2="-nan" gradientUnits="userSpaceOnUse">
<stop stop-color="#6C5CE7"/>
<stop offset="1" stop-color="#A55EEA"/>
</linearGradient>
<linearGradient id="paint4_linear_19_13" x1="176" y1="32" x2="976" y2="832" gradientUnits="userSpaceOnUse">
<stop stop-color="#6C5CE7"/>
<stop offset="1" stop-color="#A55EEA"/>
</linearGradient>
</defs>
</svg>
