<svg width="389" height="343" viewBox="0 0 389 343" fill="none" xmlns="http://www.w3.org/2000/svg">
<g clip-path="url(#clip0_21_2)">
<path d="M104.85 293.69L187.38 341.34C188.256 341.783 189.223 342.015 190.205 342.015C191.187 342.015 192.154 341.783 193.03 341.34L351.03 250.34C352.59 249.44 352.59 247.98 351.03 247.08L268.33 199.33C267.454 198.886 266.487 198.655 265.505 198.655C264.523 198.655 263.556 198.886 262.68 199.33L104.88 290.44C103.28 291.33 103.28 292.79 104.85 293.69Z" fill="#E0E0E0"/>
<path d="M3.00016 199.32L46.1902 224.14C47.0658 224.584 48.0336 224.815 49.0152 224.815C49.9968 224.815 50.9645 224.584 51.8402 224.14L103.66 194.22C105.22 193.32 105.22 191.86 103.66 190.96L60.7202 166.16C59.8428 165.716 58.8734 165.485 57.8902 165.485C56.9069 165.485 55.9375 165.716 55.0602 166.16L3.00016 196.06C1.38016 197 1.38016 198.42 3.00016 199.32Z" fill="#E0E0E0"/>
<path d="M347.53 216.66C347.29 216.56 346.53 200.38 353.53 190.85C360.53 181.32 368.93 180.22 374.47 182.54C380.01 184.86 378.87 190.54 372.05 193.96C365.23 197.38 356.74 203.34 354.72 214.22L347.53 216.66Z" fill="#6C5CE7"/>
<path opacity="0.1" d="M347.53 216.66C347.29 216.56 346.53 200.38 353.53 190.85C360.53 181.32 368.93 180.22 374.47 182.54C380.01 184.86 378.87 190.54 372.05 193.96C365.23 197.38 356.74 203.34 354.72 214.22L347.53 216.66Z" fill="black"/>
<path d="M350.09 211.91C350.212 211.909 350.33 211.866 350.423 211.787C350.516 211.709 350.579 211.6 350.6 211.48C353.21 195.05 362.92 187 371.14 184.95C371.214 184.942 371.285 184.918 371.348 184.88C371.412 184.842 371.467 184.791 371.509 184.73C371.551 184.669 371.58 184.6 371.594 184.527C371.607 184.454 371.605 184.379 371.587 184.307C371.569 184.235 371.535 184.168 371.489 184.11C371.443 184.052 371.385 184.004 371.319 183.97C371.253 183.937 371.181 183.917 371.107 183.914C371.033 183.91 370.959 183.922 370.89 183.95C362.35 186.08 352.27 194.4 349.57 211.32C349.55 211.458 349.585 211.598 349.667 211.71C349.749 211.822 349.873 211.898 350.01 211.92L350.09 211.91Z" fill="white"/>
<path d="M348.78 246.69C349.84 242.43 354.13 239.61 359.2 239.15C364.46 238.68 370.59 238.15 372.2 233.71C373.81 229.27 372.2 223.24 372.93 220.29C373.84 216.71 375.21 214.58 382.12 212.41C388.32 210.41 391.75 204.54 385.5 202.04C379.25 199.54 373 201.12 368.75 203.04C364.5 204.96 364.3 206.95 358.32 206.44C352.34 205.93 347.87 209.69 347.5 213.31L348.78 246.69Z" fill="#6C5CE7"/>
<path d="M348.78 232.23C348.886 232.229 348.99 232.196 349.077 232.135C349.165 232.075 349.232 231.989 349.27 231.89C354.19 218.18 374.27 205.78 380.99 204.99C381.127 204.972 381.252 204.902 381.338 204.793C381.424 204.685 381.464 204.547 381.45 204.41C381.443 204.342 381.422 204.276 381.388 204.216C381.355 204.156 381.31 204.104 381.256 204.062C381.202 204.02 381.14 203.989 381.073 203.971C381.007 203.954 380.938 203.95 380.87 203.96C374 204.77 353.34 217.48 348.29 231.54C348.248 231.67 348.258 231.811 348.317 231.934C348.377 232.057 348.482 232.152 348.61 232.2C348.664 232.22 348.722 232.23 348.78 232.23Z" fill="white"/>
<path d="M353.49 224H353.61C353.744 223.969 353.86 223.887 353.933 223.77C354.006 223.654 354.03 223.514 354 223.38C352.34 216.24 354 211.64 354 211.59C354.024 211.526 354.035 211.459 354.032 211.391C354.029 211.323 354.013 211.256 353.984 211.195C353.955 211.133 353.914 211.078 353.864 211.033C353.813 210.987 353.754 210.952 353.69 210.93C353.626 210.906 353.557 210.895 353.489 210.898C353.42 210.901 353.353 210.917 353.291 210.946C353.228 210.974 353.172 211.015 353.126 211.066C353.079 211.116 353.043 211.176 353.02 211.24C352.95 211.43 351.28 216.15 353.02 223.61C353.049 223.716 353.109 223.81 353.193 223.88C353.277 223.949 353.381 223.991 353.49 224Z" fill="white"/>
<path d="M350.09 229.26C350.174 229.26 350.257 229.239 350.33 229.2C354.33 227 363.13 228.57 363.22 228.58C363.292 228.609 363.369 228.623 363.446 228.619C363.523 228.615 363.599 228.594 363.667 228.557C363.735 228.521 363.794 228.469 363.84 228.407C363.885 228.344 363.916 228.273 363.931 228.197C363.945 228.121 363.943 228.042 363.923 227.968C363.903 227.893 363.867 227.823 363.817 227.764C363.768 227.705 363.705 227.658 363.635 227.626C363.564 227.594 363.488 227.578 363.41 227.58C363.03 227.51 354.2 225.94 349.84 228.3C349.78 228.332 349.726 228.376 349.682 228.43C349.639 228.483 349.606 228.545 349.587 228.611C349.567 228.677 349.561 228.746 349.568 228.815C349.576 228.883 349.597 228.949 349.63 229.01C349.678 229.088 349.746 229.153 349.826 229.197C349.907 229.241 349.998 229.262 350.09 229.26Z" fill="white"/>
<path d="M98.18 191.98L90.01 187.26L98.18 184.9V191.98Z" fill="black"/>
<path d="M49.1502 213.21V220.73L4.2002 194.78V187.26L49.1502 213.21Z" fill="black"/>
<path d="M0.120117 128.28L45.0601 154.23V215.56L0.120117 189.62V128.28Z" fill="#263238"/>
<path d="M45.0601 154.23L106.35 118.85V180.18L45.0601 215.56V154.23Z" fill="#37474F"/>
<path d="M106.35 118.85L61.4101 92.8999L0.120117 128.28L45.0601 154.23L106.35 118.85Z" fill="#455A64"/>
<path d="M49.1501 156.59L102.26 125.93V140.08L49.1501 170.75V156.59Z" fill="#455A64"/>
<g style="mix-blend-mode:multiply">
<path d="M69.5801 146C69.5801 146.65 71.5301 146.05 73.9301 144.66L81.5601 140.25C83.9701 138.87 85.9201 137.25 85.9201 136.56V135.38L69.5801 144.82V146Z" fill="#263238"/>
</g>
<path d="M49.1501 175.46L102.26 144.8V158.95L49.1501 189.62V175.46Z" fill="#455A64"/>
<g style="mix-blend-mode:multiply">
<path d="M69.5801 164.85C69.5801 165.5 71.5301 164.9 73.9301 163.51L81.5601 159.11C83.9701 157.72 85.9201 156.06 85.9201 155.41V154.23L69.5801 163.67V164.85Z" fill="#263238"/>
</g>
<path d="M49.1501 194.33L102.26 163.67V177.82L49.1501 208.49V194.33Z" fill="#455A64"/>
<g style="mix-blend-mode:multiply">
<path d="M69.5801 183.72C69.5801 184.37 71.5301 183.72 73.9301 182.38L81.5601 177.98C83.9701 176.59 85.9201 174.98 85.9201 174.28V173.1L69.5801 182.54V183.72Z" fill="#263238"/>
</g>
<path d="M49.1501 220.73L53.2301 218.37V210.85L49.1501 213.21V220.73Z" fill="#263238"/>
<path d="M98.1802 191.98L102.26 189.62V182.54L98.1802 184.9V191.98Z" fill="#263238"/>
<path d="M43.1402 149.13L67.5702 135C68.0502 134.73 68.0502 134.28 67.5702 134L34.0602 114.92C33.7902 114.784 33.4923 114.714 33.1902 114.714C32.8881 114.714 32.5902 114.784 32.3202 114.92L8.11018 128.92C7.62018 129.19 7.62018 129.64 8.11018 129.92L41.3902 149.14C41.662 149.276 41.9623 149.346 42.2664 149.345C42.5705 149.343 42.8699 149.269 43.1402 149.13Z" fill="#E0E0E0"/>
<path d="M8.08021 128.87L35.5802 111.39C35.8452 111.25 36.1404 111.176 36.4402 111.176C36.74 111.176 37.0352 111.25 37.3002 111.39L47.2002 117.11C47.4329 117.248 47.6052 117.468 47.683 117.728C47.7608 117.987 47.7384 118.266 47.6202 118.51L47.2102 119.3C47.0912 119.542 47.0672 119.82 47.1431 120.079C47.219 120.338 47.3892 120.56 47.6202 120.7L67.5702 132.31C67.6599 132.359 67.7348 132.431 67.7869 132.519C67.839 132.607 67.8665 132.707 67.8665 132.81C67.8665 132.912 67.839 133.012 67.7869 133.1C67.7348 133.188 67.6599 133.261 67.5702 133.31L43.0802 149.08C42.816 149.222 42.5205 149.297 42.2202 149.297C41.92 149.297 41.6244 149.222 41.3602 149.08L8.11021 129.91C8.00497 129.871 7.9137 129.802 7.84817 129.711C7.78265 129.62 7.7459 129.512 7.74266 129.4C7.73943 129.288 7.76987 129.177 7.83004 129.083C7.89022 128.988 7.97737 128.914 8.08021 128.87Z" fill="#F5F5F5"/>
<path d="M65.3902 57.9998C65.3105 57.9413 65.2167 57.9048 65.1183 57.8943C65.0199 57.8838 64.9205 57.8995 64.8302 57.9398L64.2102 58.2998L64.5902 97.8098C64.6063 98.0878 64.6869 98.3581 64.8258 98.5994C64.9647 98.8407 65.1579 99.0463 65.3902 99.1998L96.3202 117.06V75.8798L65.3902 57.9998Z" fill="#6C5CE7"/>
<path opacity="0.2" d="M65.3902 57.9998C65.3105 57.9413 65.2167 57.9048 65.1183 57.8943C65.0199 57.8838 64.9205 57.8995 64.8302 57.9398L64.2102 58.2998L64.5902 97.8098C64.6063 98.0878 64.6869 98.3581 64.8258 98.5994C64.9647 98.8407 65.1579 99.0463 65.3902 99.1998L96.3202 117.06V75.8798L65.3902 57.9998Z" fill="black"/>
<path d="M64.7902 58.3697C64.3502 58.1197 63.9902 58.3697 63.9902 58.8397V98.1897C64.0063 98.4676 64.087 98.738 64.2259 98.9793C64.3647 99.2206 64.558 99.4261 64.7902 99.5797L95.7202 117.43V76.2197L64.7902 58.3697Z" fill="#6C5CE7"/>
<path opacity="0.5" d="M64.7902 58.3697C64.3502 58.1197 63.9902 58.3697 63.9902 58.8397V98.1897C64.0063 98.4676 64.087 98.738 64.2259 98.9793C64.3647 99.2206 64.558 99.4261 64.7902 99.5797L95.7202 117.43V76.2197L64.7902 58.3697Z" fill="black"/>
<path d="M88.1202 113.6L65.2302 100.38C64.9979 100.226 64.8047 100.021 64.6658 99.7792C64.5269 99.5379 64.4462 99.2676 64.4302 98.9896V62.6896L61.4302 60.9796L64.4902 59.2196H64.5502C64.6802 59.0196 64.9302 58.9696 65.2302 59.1396L91.4402 74.2896V115.5L88.1002 117.42L88.1202 113.6Z" fill="#EBEBEB"/>
<path d="M61.8901 61.0998C61.4501 60.8498 61.0901 61.0998 61.0901 61.5598V100.92C61.1053 101.197 61.1858 101.466 61.3248 101.706C61.4638 101.945 61.6575 102.149 61.8901 102.3L88.1201 117.45V76.2398L61.8901 61.0998Z" fill="#FAFAFA"/>
<path d="M88.1101 76.2398L91.4401 74.3198L91.4601 115.53L88.1201 117.45L88.1101 76.2398Z" fill="#E6E6E6"/>
<path d="M87 77.3598C86.9945 77.2574 86.9743 77.1564 86.94 77.0598C86.8912 76.9048 86.8054 76.7641 86.69 76.6498C86.657 76.6089 86.6162 76.5749 86.57 76.5498C86.34 76.4098 86.14 76.5498 86.15 76.8698C86.1488 77.0158 86.1831 77.16 86.25 77.2898C86.3148 77.4492 86.4264 77.5852 86.57 77.6798C86.57 77.6798 86.57 77.6798 86.63 77.6798C86.86 77.7998 87 77.6598 87 77.3598Z" fill="#263238"/>
<path d="M91.6502 79.3597C92.0681 79.1397 92.4019 78.7883 92.6002 78.3597C92.6806 78.1542 92.7133 77.9332 92.696 77.7132C92.6787 77.4932 92.6117 77.2801 92.5002 77.0897C92.2947 76.757 92.0049 76.4844 91.6602 76.2997L91.4502 76.1797V76.7097C91.6855 76.7934 91.8892 76.948 92.0333 77.1521C92.1773 77.3562 92.2546 77.5999 92.2546 77.8497C92.2546 78.0995 92.1773 78.3432 92.0333 78.5473C91.8892 78.7514 91.6855 78.906 91.4502 78.9897C90.8304 79.3042 90.1452 79.4681 89.4502 79.4681C88.7552 79.4681 88.07 79.3042 87.4502 78.9897C87.2034 78.8894 86.9933 78.7158 86.8484 78.4922C86.7035 78.2686 86.6308 78.0059 86.6402 77.7397C86.6592 77.4921 86.7697 77.2603 86.9502 77.0897C86.9014 76.9347 86.8156 76.794 86.7002 76.6797C86.5074 76.8574 86.3571 77.0761 86.2602 77.3197C86.1791 77.5238 86.1469 77.744 86.166 77.9627C86.1851 78.1815 86.255 78.3927 86.3702 78.5797C86.5757 78.9211 86.8693 79.2009 87.2202 79.3897C87.9079 79.7369 88.6684 79.9153 89.4388 79.91C90.2092 79.9048 90.9672 79.7162 91.6502 79.3597Z" fill="#263238"/>
<path d="M87.92 80.1796L59.5 60.9996L59.94 60.7496C60.0649 60.6901 60.2016 60.6592 60.34 60.6592C60.4784 60.6592 60.6151 60.6901 60.74 60.7496L88.53 79.7496L87.92 80.1796Z" fill="#6C5CE7"/>
<path opacity="0.2" d="M87.92 80.1796L59.5 60.9996L59.94 60.7496C60.0649 60.6901 60.2016 60.6592 60.34 60.6592C60.4784 60.6592 60.6151 60.6901 60.74 60.7496L88.53 79.7496L87.92 80.1796Z" fill="black"/>
<path d="M60.06 61.0996C59.62 60.8496 59.26 61.0996 59.26 61.5696V100.92C59.2748 101.198 59.356 101.468 59.497 101.708C59.6379 101.948 59.8344 102.151 60.07 102.3L88.39 121.67V80.4596L60.06 61.0996Z" fill="#6C5CE7"/>
<path d="M96.3101 75.8799L96.3201 117.09L88.3801 121.67V80.4499L96.3101 75.8799Z" fill="#6C5CE7"/>
<path opacity="0.1" d="M96.3101 75.8799L96.3201 117.09L88.3801 121.67V80.4499L96.3101 75.8799Z" fill="black"/>
<path d="M94.7302 84.9198C94.6294 84.7305 94.4871 84.5665 94.3139 84.4401C94.1407 84.3137 93.9412 84.2281 93.7302 84.1898C93.2549 84.1368 92.7756 84.246 92.3702 84.4998C91.7233 84.9183 91.1854 85.4849 90.8011 86.1527C90.4168 86.8205 90.1971 87.5702 90.1602 88.3398C90.1483 88.7338 90.2415 89.1238 90.4302 89.4698C90.552 89.6649 90.7137 89.8319 90.9047 89.96C91.0956 90.0881 91.3116 90.1744 91.5382 90.2131C91.7649 90.2518 91.9972 90.2422 92.2199 90.1847C92.4425 90.1273 92.6505 90.0234 92.8302 89.8798C93.4793 89.4653 94.0196 88.9011 94.4059 88.2348C94.7921 87.5684 95.0131 86.8192 95.0502 86.0498C95.0521 85.657 94.9595 85.2694 94.7802 84.9198H94.7302Z" fill="#455A64"/>
<path d="M92.5601 84.8996C93.6501 84.2696 94.5601 84.7796 94.5601 86.0496C94.522 86.7389 94.3209 87.4092 93.9732 88.0055C93.6255 88.6018 93.1411 89.107 92.5601 89.4796C91.4701 90.1196 90.5601 89.5996 90.5601 88.3396C90.6005 87.6496 90.8026 86.9788 91.15 86.3812C91.4974 85.7837 91.9804 85.2762 92.5601 84.8996Z" fill="#F5F5F5"/>
<path d="M92.1702 93.4396L92.7702 93.0896C93.9702 92.3996 94.9502 92.9596 94.9502 94.3496V112.21C94.909 112.965 94.6901 113.7 94.3113 114.355C93.9325 115.011 93.4045 115.567 92.7702 115.98L92.1702 116.33C90.9702 117.02 89.9902 116.46 89.9902 115.07V97.2096C90.0314 96.454 90.2503 95.7188 90.6291 95.0638C91.0079 94.4087 91.5359 93.8522 92.1702 93.4396Z" fill="#F5F5F5"/>
<path d="M95.8402 75.5996L87.9402 80.1596L88.3802 80.4496L96.3102 75.8796L95.8402 75.5996Z" fill="#6C5CE7"/>
<path opacity="0.2" d="M95.8402 75.5996L87.9402 80.1596L88.3802 80.4496L96.3102 75.8796L95.8402 75.5996Z" fill="black"/>
<path d="M86.5101 122.37C86.6001 122.301 86.6737 122.214 86.7256 122.114C86.7775 122.013 86.8064 121.903 86.8101 121.79V81.3898C86.8036 81.2678 86.7686 81.1491 86.7078 81.0431C86.647 80.9372 86.5622 80.847 86.4602 80.7798L57.0001 61.5498L56.4001 61.8998V103.1L85.8401 122.34C85.9407 122.4 86.0545 122.434 86.1714 122.439C86.2883 122.444 86.4046 122.42 86.5101 122.37Z" fill="#6C5CE7"/>
<path opacity="0.1" d="M86.0901 81.39L86.6901 81.04C86.7524 81.147 86.79 81.2666 86.8001 81.39V121.79C86.7963 121.903 86.7675 122.014 86.7156 122.114C86.6637 122.214 86.5901 122.302 86.5001 122.37C86.3976 122.421 86.2846 122.448 86.1701 122.448C86.0556 122.448 85.9426 122.421 85.8401 122.37C86.0301 122.48 86.1901 122.37 86.1901 122.17V81.7701C86.1961 81.6362 86.1612 81.5036 86.0901 81.39Z" fill="black"/>
<path opacity="0.5" d="M56.4202 61.8999L85.8402 81.1299C85.9471 81.1904 86.034 81.2807 86.0902 81.3899C86.1592 81.4938 86.1973 81.6152 86.2002 81.7399V122.14C86.2002 122.36 86.0402 122.45 85.8502 122.34L56.4202 103.1V61.8999Z" fill="black"/>
<path opacity="0.2" d="M56.4202 61.8998L57.0202 61.5498L86.4502 80.7798C86.5498 80.8461 86.6321 80.9352 86.6902 81.0398L86.0902 81.3898C86.034 81.2806 85.9471 81.1903 85.8402 81.1298L56.4202 61.8998Z" fill="black"/>
<path d="M56.9002 62.1699L56.9102 103.38L48.9702 107.97L49.0502 66.7099L56.9002 62.1699Z" fill="#6C5CE7"/>
<path opacity="0.7" d="M56.9002 62.1699L56.9102 103.38L48.9702 107.97L49.0502 66.7099L56.9002 62.1699Z" fill="black"/>
<path d="M82 124.46C82.1356 124.526 82.2843 124.56 82.435 124.56C82.5856 124.56 82.7343 124.526 82.87 124.46L84.48 123.53C84.6032 123.445 84.7058 123.334 84.7802 123.204C84.8547 123.074 84.899 122.929 84.91 122.78V82.57C84.8979 82.4199 84.852 82.2745 84.7758 82.1447C84.6996 82.0148 84.5951 81.9038 84.47 81.82L58.73 66L56.25 67.43V108.64L82 124.46Z" fill="#EBEBEB"/>
<path d="M56.2602 108.62L82.0002 124.46C82.2402 124.6 82.4302 124.46 82.4302 124.21V83.9999C82.4196 83.8481 82.3744 83.7007 82.2981 83.569C82.2219 83.4373 82.1166 83.3248 81.9902 83.2399L56.2402 67.3999L56.2602 108.62Z" fill="#FAFAFA"/>
<path d="M58.15 70.2299C58.1445 70.1275 58.1243 70.0265 58.09 69.9299C58.0441 69.7759 57.9618 69.6353 57.85 69.5199L57.72 69.4199C57.49 69.2799 57.3 69.4199 57.3 69.7399C57.3024 69.8855 57.3365 70.0289 57.4 70.1599C57.468 70.3203 57.5831 70.4563 57.73 70.5499C58 70.6599 58.15 70.5299 58.15 70.2299Z" fill="#263238"/>
<path d="M82.3001 83.5797L84.7901 82.1396C84.8695 82.2732 84.9142 82.4244 84.9201 82.5797V122.78C84.908 122.93 84.8621 123.075 84.7859 123.205C84.7097 123.335 84.6052 123.446 84.4801 123.53L82.8701 124.46C82.752 124.512 82.6242 124.539 82.4951 124.539C82.366 124.539 82.2383 124.512 82.1201 124.46C82.3001 124.51 82.4301 124.4 82.4301 124.16V83.9996C82.428 83.8501 82.3828 83.7043 82.3001 83.5797Z" fill="#E6E6E6"/>
<path d="M52.3801 68.1897C52.395 68.5069 52.496 68.8141 52.6721 69.0783C52.8483 69.3426 53.093 69.5539 53.3801 69.6897C54.7527 70.3266 56.3115 70.4369 57.7601 69.9997L57.5401 69.4397C56.2604 69.8177 54.8878 69.7254 53.6701 69.1797C53.4351 69.0587 53.2379 68.8753 53.1001 68.6497C53.0138 68.5123 52.972 68.3517 52.9801 68.1897C52.9801 67.6397 53.5101 67.0297 54.3801 66.5597C55.1952 66.1142 56.0997 65.8569 57.0272 65.8067C57.9548 65.7565 58.8817 65.9147 59.7401 66.2697C60.019 66.415 60.2434 66.6465 60.3801 66.9297L61.0201 67.3097V67.2597C61.019 66.9966 60.9502 66.7383 60.8201 66.5097C60.6254 66.1926 60.3491 65.9336 60.0201 65.7597C59.0759 65.3505 58.0505 65.1631 57.0226 65.2116C55.9947 65.2601 54.9916 65.5434 54.0901 66.0397C53.6427 66.2184 53.2497 66.5107 52.9498 66.8878C52.6499 67.2648 52.4536 67.7135 52.3801 68.1897Z" fill="#263238"/>
<path d="M81.46 125.28C81.5541 125.215 81.6312 125.128 81.6851 125.027C81.739 124.926 81.7681 124.814 81.77 124.7V84.2999C81.7635 84.1779 81.7285 84.0591 81.6677 83.9532C81.6069 83.8472 81.5221 83.757 81.42 83.6899L49.14 66.1099L48.54 66.4599V107.66L80.83 125.25C80.9251 125.305 81.0318 125.336 81.1414 125.341C81.251 125.346 81.3602 125.325 81.46 125.28Z" fill="#6C5CE7"/>
<path opacity="0.1" d="M81.05 84.3L81.65 83.96C81.7104 84.0635 81.7447 84.1802 81.75 84.3V124.7C81.7675 124.823 81.7472 124.948 81.6918 125.059C81.6365 125.169 81.5487 125.261 81.4401 125.321C81.3315 125.38 81.2073 125.406 81.084 125.393C80.9608 125.38 80.8442 125.33 80.75 125.25C80.94 125.36 81.1 125.25 81.1 125.05V84.6499C81.1103 84.531 81.0932 84.4113 81.05 84.3Z" fill="black"/>
<path d="M48.52 66.46L80.8 84C80.9038 84.0653 80.9899 84.155 81.0509 84.2614C81.112 84.3677 81.146 84.4874 81.15 84.61V125.01C81.15 125.23 80.99 125.32 80.8 125.21L48.51 107.62L48.52 66.46Z" fill="#6C5CE7"/>
<path opacity="0.2" d="M48.52 66.4599L49.12 66.1099L81.4 83.6899C81.5053 83.7567 81.5915 83.8497 81.65 83.9599L81.05 84.2999C80.9882 84.1949 80.9025 84.1058 80.8 84.0399L48.52 66.4599Z" fill="black"/>
<path d="M56.42 61.8999L48.53 66.4599L49.05 66.7099L56.9 62.1699L56.42 61.8999Z" fill="#6C5CE7"/>
<path opacity="0.2" d="M56.42 61.8999L48.53 66.4599L49.05 66.7099L56.9 62.1699L56.42 61.8999Z" fill="black"/>
<path d="M49.0001 67.5097C48.9153 67.4596 48.8186 67.4331 48.7201 67.4331C48.6216 67.4331 48.5249 67.4596 48.4401 67.5097L47.8201 67.8597L48.2001 107.38C48.2153 107.656 48.2957 107.926 48.4348 108.166C48.5738 108.405 48.7675 108.609 49.0001 108.76L79.9301 126.62V85.3597L49.0001 67.5097Z" fill="#6C5CE7"/>
<path opacity="0.2" d="M49.0001 67.5097C48.9153 67.4596 48.8186 67.4331 48.7201 67.4331C48.6216 67.4331 48.5249 67.4596 48.4401 67.5097L47.8201 67.8597L48.2001 107.38C48.2153 107.656 48.2957 107.926 48.4348 108.166C48.5738 108.405 48.7675 108.609 49.0001 108.76L79.9301 126.62V85.3597L49.0001 67.5097Z" fill="black"/>
<path d="M48.3601 67.8598C47.9201 67.5998 47.5601 67.8098 47.5601 68.3198V107.67C47.5746 107.948 47.6546 108.219 47.7936 108.461C47.9326 108.702 48.1267 108.907 48.3601 109.06L79.2901 126.92V85.7098L48.3601 67.8598Z" fill="#6C5CE7"/>
<path opacity="0.5" d="M48.3601 67.8598C47.9201 67.5998 47.5601 67.8098 47.5601 68.3198V107.67C47.5746 107.948 47.6546 108.219 47.7936 108.461C47.9326 108.702 48.1267 108.907 48.3601 109.06L79.2901 126.92V85.7098L48.3601 67.8598Z" fill="black"/>
<path d="M71.69 123.09L48.8 109.86C48.5661 109.708 48.3716 109.503 48.2325 109.261C48.0934 109.019 48.0137 108.748 48 108.47V72.1796L45 70.4696L48.06 68.6996C48.1007 68.6497 48.1508 68.6082 48.2075 68.5777C48.2642 68.5471 48.3264 68.528 48.3905 68.5215C48.4546 68.515 48.5193 68.5212 48.581 68.5398C48.6427 68.5583 48.7001 68.5889 48.75 68.6296L75 83.7996V125L71.66 126.93L71.69 123.09Z" fill="#EBEBEB"/>
<path d="M45.4602 70.5898C45.0202 70.3298 44.6602 70.5398 44.6602 71.0498V110.4C44.6762 110.678 44.7569 110.948 44.8958 111.189C45.0346 111.431 45.2279 111.636 45.4602 111.79L71.6902 126.94V85.7298L45.4602 70.5898Z" fill="#FAFAFA"/>
<path d="M71.6802 85.7298L75.0102 83.7998L75.0302 125.01L71.6902 126.94L71.6802 85.7298Z" fill="#E6E6E6"/>
<path d="M70.5901 86.85C70.5837 86.7445 70.5636 86.6403 70.5301 86.54C70.4799 86.3887 70.3941 86.2515 70.2801 86.14C70.25 86.0963 70.2085 86.0617 70.1601 86.04C69.9301 85.9 69.7301 86.04 69.7401 86.36C69.7397 86.506 69.7739 86.6499 69.8401 86.78C69.9074 86.9379 70.0184 87.0732 70.1601 87.17H70.2201C70.4301 87.28 70.5901 87.15 70.5901 86.85Z" fill="#263238"/>
<path d="M75.2202 88.8399C75.6404 88.6231 75.9751 88.2707 76.1702 87.8399C76.2504 87.6361 76.2831 87.4167 76.2658 87.1984C76.2485 86.98 76.1816 86.7685 76.0702 86.5799C75.8673 86.245 75.5769 85.9718 75.2302 85.7899C75.1637 85.7441 75.0934 85.7039 75.0202 85.6699V86.1899C75.2555 86.2737 75.4592 86.4282 75.6032 86.6323C75.7472 86.8364 75.8246 87.0801 75.8246 87.3299C75.8246 87.5797 75.7472 87.8234 75.6032 88.0275C75.4592 88.2317 75.2555 88.3862 75.0202 88.4699C74.4013 88.7875 73.7158 88.9532 73.0202 88.9532C72.3246 88.9532 71.639 88.7875 71.0202 88.4699C70.7733 88.3697 70.5633 88.196 70.4184 87.9724C70.2735 87.7489 70.2008 87.4862 70.2102 87.2199C70.2345 86.9737 70.3441 86.7438 70.5202 86.5699C70.4699 86.4186 70.3842 86.2814 70.2702 86.1699C70.0755 86.346 69.9248 86.5651 69.8302 86.8099C69.7691 87.0085 69.7526 87.2182 69.782 87.424C69.8114 87.6297 69.8859 87.8264 70.0002 87.9999C70.2063 88.3383 70.5 88.6147 70.8502 88.7999C71.5232 89.1527 72.2705 89.3404 73.0303 89.3473C73.7902 89.3543 74.5408 89.1804 75.2202 88.8399Z" fill="#263238"/>
<path d="M71.4901 89.67L43.0701 70.53L43.5101 70.28C43.6337 70.216 43.7709 70.1826 43.9101 70.1826C44.0493 70.1826 44.1864 70.216 44.3101 70.28L72.1001 89.28L71.4901 89.67Z" fill="#6C5CE7"/>
<path opacity="0.2" d="M71.4901 89.67L43.0701 70.53L43.5101 70.28C43.6337 70.216 43.7709 70.1826 43.9101 70.1826C44.0493 70.1826 44.1864 70.216 44.3101 70.28L72.1001 89.28L71.4901 89.67Z" fill="black"/>
<path d="M43.6301 70.5898C43.1901 70.3298 42.8301 70.5398 42.8301 71.0498V110.4C42.8446 110.678 42.9246 110.949 43.0636 111.191C43.2026 111.432 43.3967 111.637 43.6301 111.79L72.0001 131.15V89.9398L43.6301 70.5898Z" fill="#6C5CE7"/>
<path d="M79.8802 85.3599L79.8902 126.57L71.9502 131.16V89.9399L79.8802 85.3599Z" fill="#6C5CE7"/>
<path opacity="0.1" d="M79.8802 85.3599L79.8902 126.57L71.9502 131.16V89.9399L79.8802 85.3599Z" fill="black"/>
<path d="M78.3002 94.3997C78.1989 94.2118 78.0562 94.0494 77.883 93.9247C77.7098 93.7999 77.5105 93.7162 77.3002 93.6797C76.8246 93.6217 76.3437 93.7314 75.9402 93.9897C75.2935 94.406 74.7556 94.9708 74.3712 95.6369C73.9868 96.3031 73.767 97.0515 73.7302 97.8197C73.7102 98.2304 73.8036 98.6386 74.0002 98.9997C74.1231 99.1935 74.2853 99.3594 74.4763 99.4866C74.6673 99.6137 74.8829 99.6994 75.1091 99.7381C75.3353 99.7767 75.5671 99.7675 75.7895 99.7109C76.0119 99.6543 76.2199 99.5517 76.4002 99.4097C77.0495 98.9929 77.5898 98.4269 77.976 97.759C78.3621 97.091 78.583 96.3404 78.6202 95.5697C78.624 95.1754 78.5276 94.7866 78.3402 94.4397L78.3002 94.3997Z" fill="#455A64"/>
<path d="M76.1301 94.3899C77.2201 93.7599 78.1301 94.2699 78.1301 95.5399C78.0921 96.2291 77.8909 96.8994 77.5432 97.4957C77.1955 98.0921 76.7112 98.5973 76.1301 98.9699C75.0401 99.5999 74.1301 99.0899 74.1301 97.8299C74.169 97.1395 74.3704 96.468 74.718 95.8703C75.0655 95.2725 75.5494 94.7652 76.1301 94.3899Z" fill="#F5F5F5"/>
<path d="M75.7401 102.92L76.3401 102.58C77.5401 101.88 78.5201 102.45 78.5201 103.83V121.69C78.478 122.447 78.2589 123.183 77.8802 123.84C77.5016 124.496 76.974 125.055 76.3401 125.47L75.7401 125.81C74.5401 126.51 73.5601 125.94 73.5601 124.56V106.7C73.6021 105.943 73.8213 105.207 74.1999 104.55C74.5786 103.894 75.1061 103.335 75.7401 102.92Z" fill="#F5F5F5"/>
<path d="M79.41 85.0801L71.51 89.6401L71.95 89.9401L79.88 85.3601L79.41 85.0801Z" fill="#6C5CE7"/>
<path opacity="0.2" d="M79.41 85.0801L71.51 89.6401L71.95 89.9401L79.88 85.3601L79.41 85.0801Z" fill="black"/>
<path d="M302.12 74.4397L298.17 66.9997L301.35 57.8297V52.2197L291.63 57.8297V63.4497L295.81 70.6797C295.871 70.7955 295.97 70.8872 296.09 70.9397L302.12 74.4397Z" fill="#6C5CE7"/>
<path opacity="0.2" d="M302.12 74.4397L298.17 66.9997L301.35 57.8297V52.2197L291.63 57.8297V63.4497L295.81 70.6797C295.871 70.7955 295.97 70.8872 296.09 70.9397L302.12 74.4397Z" fill="black"/>
<path d="M325.33 7.62995C325.267 6.62663 324.97 5.65201 324.463 4.78388C323.956 3.91575 323.253 3.17815 322.41 2.62995L320 1.21996C319.097 0.761431 318.098 0.522461 317.085 0.522461C316.072 0.522461 315.073 0.761431 314.17 1.21996L277.79 22.22C276.947 22.7682 276.245 23.5058 275.738 24.3739C275.231 25.242 274.934 26.2166 274.87 27.22V67.22C274.934 68.2233 275.231 69.1979 275.738 70.066C276.245 70.9342 276.947 71.6718 277.79 72.22L280.16 73.59C281.063 74.0485 282.062 74.2874 283.075 74.2874C284.088 74.2874 285.087 74.0485 285.99 73.59L297.69 66.83L301.86 74.05C301.918 74.1552 302.006 74.2413 302.112 74.2978C302.218 74.3543 302.338 74.3788 302.458 74.3682C302.577 74.3576 302.692 74.3124 302.786 74.2381C302.881 74.1639 302.951 74.0638 302.99 73.95L307.39 61.22L322.39 52.55C323.233 52.0018 323.936 51.2642 324.443 50.396C324.95 49.5279 325.247 48.5533 325.31 47.55L325.33 7.62995Z" fill="#6C5CE7"/>
<path opacity="0.2" d="M274.91 67.3399C274.974 68.3432 275.271 69.3178 275.778 70.186C276.285 71.0541 276.987 71.7917 277.83 72.3399L280.2 73.7099C281.022 74.1223 281.921 74.3568 282.84 74.3981C283.758 74.4395 284.675 74.2868 285.53 73.9499C284.16 74.4699 283.11 73.6899 283.11 72.0299V31.9999C283.149 30.9859 283.445 29.9984 283.97 29.1299L275.77 24.3999C275.242 25.267 274.946 26.2553 274.91 27.2699V67.3399Z" fill="black"/>
<path opacity="0.3" d="M325.23 6.81C324.89 5.57 323.76 5.18 322.42 5.95L286 27C285.131 27.5301 284.42 28.2827 283.94 29.18L275.75 24.44C276.236 23.5526 276.942 22.8053 277.8 22.27L314.18 1.27C315.083 0.811472 316.082 0.57251 317.095 0.57251C318.108 0.57251 319.107 0.811472 320.01 1.27L322.39 2.64C323.12 3.10769 323.748 3.7182 324.236 4.43482C324.724 5.15144 325.062 5.95936 325.23 6.81Z" fill="white"/>
<path d="M308.2 35.5697C308.151 35.5595 308.1 35.5595 308.05 35.5697L306 35.3997C305.954 35.4025 305.907 35.3957 305.864 35.3798C305.82 35.364 305.78 35.3393 305.747 35.3075C305.713 35.2757 305.686 35.2372 305.668 35.1946C305.649 35.152 305.64 35.1061 305.64 35.0597C305.64 34.7297 305.69 34.3997 305.69 34.0597C305.69 33.7197 305.69 33.3597 305.69 33.0597C305.691 32.8353 305.772 32.6186 305.92 32.4497L308.25 29.6197C308.319 29.5417 308.367 29.4481 308.392 29.347C308.416 29.246 308.416 29.1405 308.39 29.0397L307.28 26.5797C307.269 26.5503 307.247 26.5256 307.22 26.5097C307.13 26.5097 306.99 26.5097 306.86 26.6197L304.37 28.8997C304.303 28.9759 304.211 29.0265 304.111 29.0429C304.011 29.0593 303.908 29.0405 303.82 28.9897C303.503 28.7267 303.145 28.5172 302.76 28.3697C302.674 28.3365 302.602 28.2745 302.557 28.1943C302.511 28.1141 302.495 28.0206 302.51 27.9297L303.28 24.4397C303.292 24.3932 303.287 24.344 303.267 24.3003C303.247 24.2566 303.213 24.2211 303.17 24.1997C303.096 24.173 303.014 24.173 302.94 24.1997L300.5 24.4397C300.387 24.4498 300.279 24.4893 300.186 24.5542C300.093 24.6191 300.018 24.7072 299.97 24.8097L298.64 28.3597C298.527 28.5855 298.34 28.7656 298.11 28.8697C297.585 29.1237 297.08 29.4179 296.6 29.7497C296.4 29.8797 296.17 29.8897 296.08 29.7497L294.83 27.8397C294.74 27.7097 294.54 27.7397 294.38 27.8997L291.7 30.7297C291.624 30.8067 291.566 30.8995 291.53 31.0014C291.493 31.1034 291.48 31.212 291.49 31.3197L292.24 33.8397C292.273 34.0521 292.226 34.2691 292.11 34.4497C291.657 35.1392 291.243 35.8537 290.87 36.5897C290.737 36.8003 290.53 36.9536 290.29 37.0197L288 37.5797C287.886 37.6072 287.781 37.6602 287.69 37.7347C287.6 37.8092 287.528 37.9033 287.48 38.0097L286.33 41.8897C286.317 41.932 286.314 41.9768 286.322 42.0204C286.33 42.0639 286.349 42.1048 286.377 42.1393C286.404 42.1739 286.44 42.2012 286.481 42.2187C286.522 42.2362 286.566 42.2434 286.61 42.2397L288.71 42.3597C288.756 42.3584 288.801 42.3662 288.843 42.3827C288.886 42.3992 288.924 42.424 288.957 42.4557C288.99 42.4874 289.016 42.5253 289.033 42.5673C289.051 42.6092 289.06 42.6542 289.06 42.6997C289.001 43.3651 289.001 44.0344 289.06 44.6997C289.059 44.9253 288.981 45.1438 288.84 45.3197L286.5 48.1497C286.431 48.2278 286.383 48.3214 286.358 48.4224C286.334 48.5235 286.335 48.629 286.36 48.7297L287.47 51.1797C287.482 51.2146 287.507 51.2433 287.54 51.2597H287.62C287.722 51.2463 287.816 51.2008 287.89 51.1297L290.38 48.8497C290.447 48.7735 290.539 48.723 290.639 48.7065C290.739 48.6901 290.842 48.7089 290.93 48.7597C291.249 49.0197 291.607 49.2289 291.99 49.3797C292.077 49.4114 292.15 49.473 292.196 49.5537C292.242 49.6343 292.257 49.7286 292.24 49.8197L291.47 53.3097C291.459 53.3552 291.463 53.4029 291.481 53.4461C291.499 53.4892 291.53 53.5255 291.57 53.5497C291.644 53.5765 291.726 53.5765 291.8 53.5497L294.24 53.3097C294.352 53.2978 294.46 53.2576 294.553 53.1929C294.645 53.1282 294.72 53.0411 294.77 52.9397L296.1 49.3897C296.216 49.1658 296.402 48.9865 296.63 48.8797C296.894 48.7569 297.151 48.6201 297.4 48.4697C297.65 48.3297 297.89 48.1697 298.14 47.9997C298.39 47.8297 298.57 47.8597 298.66 47.9997L299.91 49.9097H299.97C300.07 49.9797 300.23 49.9097 300.36 49.7997L303 46.9997C303.077 46.9235 303.135 46.8306 303.169 46.7282C303.204 46.6258 303.215 46.5168 303.2 46.4097L302.46 43.8897C302.426 43.676 302.477 43.4574 302.6 43.2797C303.056 42.5937 303.467 41.8789 303.83 41.1397C303.963 40.9292 304.17 40.7758 304.41 40.7097L306.7 40.1497C306.815 40.126 306.923 40.0744 307.014 39.9994C307.104 39.9245 307.175 39.8284 307.22 39.7197L308.37 35.8397C308.38 35.7817 308.368 35.7222 308.336 35.6724C308.305 35.6226 308.257 35.5861 308.2 35.5697ZM296 45.0497H295.87H295.77H295.55H295.3H295C294.508 45.0542 294.025 44.9094 293.616 44.6346C293.208 44.3597 292.892 43.9676 292.71 43.5097C292.528 43.1043 292.413 42.672 292.37 42.2297C292.355 41.9933 292.355 41.7561 292.37 41.5197C292.514 38.9265 293.578 36.4695 295.37 34.5897C295.91 34.0054 296.529 33.5004 297.21 33.0897C297.42 32.9697 297.63 32.8597 297.83 32.7697C298.372 32.5189 298.963 32.3958 299.56 32.4097H299.75H299.85C300.274 32.4724 300.674 32.6447 301.011 32.9096C301.347 33.1744 301.609 33.5226 301.77 33.9197C302.77 36.2097 301.61 40.2097 299.12 42.8397C298.308 43.8544 297.227 44.6202 296 45.0497Z" fill="#455A64"/>
<path d="M322.85 40.9999H322.73L321.15 40.9099C321.116 40.9127 321.081 40.9083 321.048 40.8969C321.016 40.8856 320.986 40.8676 320.96 40.8441C320.935 40.8206 320.915 40.7921 320.901 40.7604C320.887 40.7287 320.88 40.6945 320.88 40.6599C320.88 40.4099 320.88 40.1599 320.88 39.9199C320.896 39.6568 320.896 39.393 320.88 39.1299C320.882 38.9585 320.942 38.7929 321.05 38.6599L322.83 36.5099C322.882 36.4508 322.919 36.3796 322.936 36.3027C322.954 36.2258 322.952 36.1457 322.93 36.0699L322.09 34.2099L322.04 34.1499C321.97 34.1499 321.87 34.1499 321.77 34.2299L319.86 35.9999C319.808 36.0561 319.738 36.0935 319.662 36.1061C319.586 36.1188 319.508 36.106 319.44 36.0699C319.201 35.87 318.931 35.7112 318.64 35.5999C318.575 35.5754 318.521 35.5291 318.486 35.4689C318.451 35.4087 318.439 35.3384 318.45 35.2699L319.03 32.6199C319.038 32.5839 319.034 32.5463 319.02 32.5123C319.006 32.4783 318.981 32.4496 318.95 32.4299C318.891 32.4185 318.83 32.4185 318.77 32.4299L316.92 32.6199C316.835 32.6294 316.754 32.66 316.685 32.7089C316.615 32.7578 316.558 32.8235 316.52 32.8999L315.52 35.5899C315.431 35.762 315.286 35.8992 315.11 35.9799C314.713 36.1696 314.332 36.3903 313.97 36.6399C313.81 36.7499 313.64 36.7499 313.57 36.6399L312.62 35.1999C312.56 35.0899 312.4 35.1199 312.28 35.1999L310.28 37.3499C310.223 37.4073 310.18 37.4764 310.152 37.5524C310.124 37.6283 310.114 37.7094 310.12 37.7899L310.69 39.7099C310.714 39.8703 310.678 40.0337 310.59 40.1699C310.244 40.6904 309.931 41.2314 309.65 41.7899C309.553 41.9538 309.395 42.0725 309.21 42.1199L307.47 42.5399C307.385 42.5604 307.306 42.5999 307.239 42.6553C307.171 42.7107 307.117 42.7806 307.08 42.8599L306.2 45.8599C306.19 45.8928 306.188 45.9277 306.195 45.9614C306.202 45.9952 306.217 46.0268 306.238 46.0534C306.26 46.0801 306.288 46.101 306.32 46.1143C306.351 46.1277 306.386 46.133 306.42 46.1299L308.01 46.2199C308.045 46.2171 308.079 46.2216 308.112 46.2329C308.145 46.2442 308.175 46.2622 308.2 46.2857C308.225 46.3092 308.246 46.3377 308.259 46.3694C308.273 46.4011 308.28 46.4353 308.28 46.4699C308.235 46.9789 308.235 47.4909 308.28 47.9999C308.283 48.1721 308.223 48.3395 308.11 48.4699L306.34 50.6199C306.287 50.6785 306.249 50.7493 306.23 50.8261C306.211 50.9029 306.211 50.9832 306.23 51.0599L307.07 52.9199L307.12 52.9699H307.2C307.278 52.9628 307.351 52.9313 307.41 52.8799L309.3 51.1499C309.35 51.0929 309.418 51.0549 309.493 51.0422C309.567 51.0294 309.644 51.0427 309.71 51.0799C309.954 51.278 310.227 51.4366 310.52 51.5499C310.585 51.5744 310.64 51.6207 310.674 51.6809C310.709 51.7411 310.722 51.8114 310.71 51.8799L310.12 54.5299C310.115 54.5644 310.119 54.5998 310.133 54.6318C310.148 54.6638 310.171 54.6909 310.2 54.7099C310.256 54.7269 310.315 54.7269 310.37 54.7099L312.22 54.5199C312.305 54.5104 312.386 54.4798 312.456 54.4309C312.526 54.382 312.582 54.3163 312.62 54.2399L313.62 51.5499C313.705 51.3781 313.846 51.2405 314.02 51.1599C314.22 51.0699 314.41 50.9599 314.61 50.8499L315.17 50.4999C315.32 50.3899 315.5 50.3799 315.56 50.4999L316.51 51.9399C316.521 51.9612 316.539 51.9786 316.56 51.9899C316.612 52.0072 316.668 52.0078 316.72 51.9916C316.772 51.9755 316.817 51.9434 316.85 51.8999L318.85 49.7499C318.907 49.6924 318.951 49.6234 318.978 49.5474C319.006 49.4715 319.017 49.3904 319.01 49.3099L318.44 47.3899C318.421 47.2283 318.46 47.0651 318.55 46.9299C318.896 46.4115 319.207 45.8703 319.48 45.3099C319.58 45.1481 319.737 45.0302 319.92 44.9799L321.66 44.5599C321.747 44.5405 321.828 44.5004 321.896 44.4429C321.964 44.3855 322.017 44.3124 322.05 44.2299L322.93 41.2899C322.948 41.2667 322.96 41.2397 322.965 41.2112C322.97 41.1827 322.969 41.1533 322.961 41.1252C322.954 41.0972 322.94 41.0714 322.92 41.0496C322.901 41.0279 322.877 41.0109 322.85 40.9999ZM313.57 48.1899H313.47H313.4H313.23H313.04H312.87C312.496 48.1952 312.128 48.0861 311.817 47.877C311.506 47.6679 311.267 47.3689 311.13 47.0199C310.986 46.7041 310.898 46.3658 310.87 46.0199C310.86 45.8434 310.86 45.6664 310.87 45.4899C310.982 43.5175 311.798 41.6508 313.17 40.2299C313.578 39.7832 314.05 39.3991 314.57 39.0899C314.712 39.0537 314.856 39.0237 315 38.9999C315.414 38.811 315.865 38.7187 316.32 38.7299H316.54C316.862 38.7774 317.165 38.9087 317.419 39.1106C317.674 39.3124 317.871 39.5778 317.99 39.8799C318.77 41.6099 317.87 44.6399 315.99 46.6399C315.346 47.3835 314.508 47.9338 313.57 48.2299V48.1899Z" fill="#455A64"/>
<path d="M176.39 148.05L170.23 144.56C169.145 143.94 168.243 143.045 167.614 141.966C166.985 140.886 166.653 139.659 166.65 138.41V105.87H169.92V138.41C169.918 139.082 170.094 139.743 170.432 140.325C170.769 140.906 171.255 141.388 171.84 141.72L178 145.22L176.39 148.05Z" fill="#263238"/>
<path d="M158.14 117.75C157.603 117.385 157.159 116.899 156.845 116.331C156.531 115.763 156.354 115.129 156.33 114.48V85.4799C156.363 84.827 156.565 84.1937 156.916 83.6418C157.266 83.0898 157.753 82.6379 158.33 82.33L190.41 67.5099C191.019 67.2597 191.674 67.1402 192.332 67.1592C192.99 67.1781 193.637 67.3351 194.23 67.6199C194.767 67.9849 195.211 68.471 195.525 69.0391C195.839 69.6071 196.016 70.2411 196.04 70.8899V99.8899C196.007 100.543 195.805 101.176 195.455 101.728C195.104 102.28 194.617 102.732 194.04 103.04L162 117.86C161.386 118.116 160.724 118.239 160.058 118.22C159.393 118.201 158.739 118.041 158.14 117.75Z" fill="#455A64"/>
<path d="M163.55 87.4396L156.94 83.6196C156.568 84.1745 156.356 84.8219 156.33 85.4896V114.49C156.354 115.138 156.531 115.772 156.845 116.341C157.159 116.909 157.603 117.395 158.14 117.76C158.734 118.044 159.38 118.201 160.038 118.22C160.696 118.239 161.351 118.12 161.96 117.87L163.55 117.13V87.4396Z" fill="#263238"/>
<path d="M162 84.4199L194 69.6099C194.211 69.4755 194.457 69.4045 194.707 69.4053C194.958 69.4061 195.203 69.4786 195.413 69.6144C195.624 69.7502 195.791 69.9434 195.895 70.1712C195.999 70.3991 196.035 70.652 196 70.8999V99.8999C195.967 100.553 195.765 101.186 195.415 101.738C195.064 102.29 194.577 102.742 194 103.05L162 117.86C161.788 117.99 161.544 118.058 161.295 118.055C161.046 118.052 160.803 117.979 160.594 117.844C160.385 117.709 160.219 117.518 160.113 117.293C160.008 117.067 159.969 116.817 160 116.57V87.5699C160.035 86.9174 160.238 86.285 160.588 85.7333C160.938 85.1817 161.425 84.7294 162 84.4199Z" fill="#37474F"/>
<path d="M169 149.92V204.34C168.987 204.592 168.915 204.837 168.79 205.056C168.665 205.275 168.49 205.461 168.28 205.6L166.34 206.72C166.115 206.833 165.867 206.892 165.615 206.892C165.363 206.892 165.115 206.833 164.89 206.72L163 205.6C162.79 205.461 162.615 205.275 162.49 205.056C162.365 204.837 162.293 204.592 162.28 204.34V149.92C162.28 149.273 162.537 148.652 162.995 148.195C163.452 147.737 164.073 147.48 164.72 147.48H166.6C167.24 147.49 167.851 147.752 168.3 148.209C168.749 148.665 169 149.28 169 149.92Z" fill="#263238"/>
<path d="M164 147.48C164.448 147.48 164.878 147.658 165.195 147.975C165.512 148.292 165.69 148.722 165.69 149.17V206.4C165.69 206.8 165.41 206.97 165.06 206.77L163 205.58C162.799 205.448 162.632 205.27 162.513 205.062C162.393 204.854 162.323 204.62 162.31 204.38V149.17C162.31 148.722 162.488 148.292 162.805 147.975C163.122 147.658 163.552 147.48 164 147.48Z" fill="#37474F"/>
<path d="M205.68 169V225C205.667 225.25 205.595 225.494 205.47 225.711C205.345 225.928 205.17 226.113 204.96 226.25L203 227.43C202.775 227.543 202.527 227.602 202.275 227.602C202.023 227.602 201.775 227.543 201.55 227.43L199.61 226.31C199.4 226.173 199.225 225.988 199.1 225.771C198.975 225.554 198.903 225.31 198.89 225.06V169C198.89 168.779 198.977 168.567 199.133 168.409C199.288 168.252 199.499 168.162 199.72 168.16H204.83C204.941 168.158 205.052 168.179 205.155 168.221C205.258 168.262 205.352 168.324 205.431 168.402C205.51 168.48 205.572 168.573 205.615 168.676C205.658 168.779 205.68 168.889 205.68 169Z" fill="#263238"/>
<path d="M199.74 168.19H201.46C201.681 168.193 201.892 168.282 202.048 168.439C202.203 168.597 202.29 168.809 202.29 169.03V227.03C202.29 227.49 201.97 227.67 201.57 227.44L199.63 226.32C199.42 226.183 199.245 225.999 199.12 225.781C198.995 225.564 198.923 225.32 198.91 225.07V169C198.918 168.784 199.008 168.58 199.163 168.429C199.317 168.278 199.524 168.192 199.74 168.19Z" fill="#37474F"/>
<path d="M162.27 148.76V149.51C162.306 150.19 162.485 150.855 162.795 151.461C163.105 152.068 163.54 152.602 164.07 153.03L200.49 178.43C201.041 178.785 201.675 178.99 202.33 179.024C202.984 179.057 203.636 178.918 204.22 178.62L250 152.16C250.563 151.797 251.031 151.306 251.367 150.727C251.702 150.148 251.895 149.498 251.93 148.83V148.06C251.899 147.405 251.699 146.769 251.348 146.215C250.998 145.661 250.509 145.208 249.93 144.9L204.89 124C204.257 123.751 203.58 123.639 202.901 123.67C202.222 123.701 201.557 123.875 200.95 124.18L164.19 145.42C163.631 145.787 163.165 146.281 162.832 146.861C162.498 147.441 162.306 148.091 162.27 148.76Z" fill="#37474F"/>
<path d="M164.19 145.42L201 124.18C201.607 123.875 202.272 123.701 202.951 123.67C203.63 123.639 204.308 123.751 204.94 124L250 144.9C251.12 145.42 251.16 146.33 250.09 146.9L204.22 173.4C203.637 173.7 202.985 173.84 202.33 173.807C201.675 173.773 201.04 173.567 200.49 173.21L164.07 147.84C163.846 147.72 163.661 147.539 163.536 147.318C163.411 147.097 163.351 146.845 163.364 146.592C163.376 146.338 163.461 146.093 163.607 145.886C163.753 145.678 163.956 145.517 164.19 145.42Z" fill="#455A64"/>
<path d="M216.84 246.33H226.3V230.13H216.84V246.33Z" fill="#FFA8A7"/>
<path d="M244.24 226.18L253.7 226.5L254.18 209.35L244.72 209.03L244.24 226.18Z" fill="#FFA8A7"/>
<path d="M226.3 242.07V240.39C227.3 240.82 231.76 250.29 235.84 254.01C239.09 257.01 244.84 261.01 244.65 263.83C244.47 267.45 239.31 269.06 234.85 268.01C231.37 267.19 226.4 265.08 224.01 262.51C221.62 259.94 220.85 256.51 219.61 254.86C218.37 253.21 215.49 251.3 214.82 249.35C214.45 248.28 214.89 245.93 215.41 243.95C215.88 242.13 216.41 240.13 217.02 240.3V241.42C217.77 242.25 219.83 243.07 222.16 243.16C223.67 243.22 226.31 243.22 226.3 242.07Z" fill="#263238"/>
<path d="M253.8 223.58C254.29 223.58 254.69 224.29 255.8 225.47C257.11 226.88 260.04 228.37 262.15 229.42C265.7 231.2 274.97 233.58 278.09 234.98C280.04 235.86 279.55 238.89 276.79 240.59C274.73 241.86 268.17 243.08 262.33 241.78C259.15 241.06 254.33 238.86 251.95 238.49C249.35 238.08 244.58 237.58 242.65 236.25C240.72 234.92 241.49 232.07 242.04 229.62C242.63 226.95 243.49 222.86 244.37 223.04V223.88C245.51 225.61 251.3 226.31 253.8 225.04V223.58Z" fill="#263238"/>
<path d="M178.71 131.58C176.64 146.21 179.43 149.02 193.33 163.03C200.81 170.56 212.85 181.61 212.85 181.61C212.85 181.61 212.68 186.28 212.58 196.76C212.49 205.98 216.35 236.01 216.35 236.01C216.35 236.01 222.63 238.65 226.94 235.91C226.94 235.91 228.89 213.57 229.94 201.91C231.37 186.13 232.11 178.22 231.31 174.82C230.6 171.82 216.45 153.97 213.18 148.95L243.25 166.42C242.666 170.846 242.372 175.306 242.37 179.77C242.7 192.3 244.24 217.31 244.24 217.31C244.24 217.31 251.13 220.39 254.54 217.73C254.54 217.73 263.21 163.03 263.21 158.54C263.21 151.72 233.58 131.36 227.97 126.61C224.77 123.91 221.2 121.02 221.2 121.02L178.71 131.58Z" fill="#6C5CE7"/>
<path opacity="0.3" d="M178.71 131.58C176.64 146.21 179.43 149.02 193.33 163.03C200.81 170.56 212.85 181.61 212.85 181.61C212.85 181.61 212.68 186.28 212.58 196.76C212.49 205.98 216.35 236.01 216.35 236.01C216.35 236.01 222.63 238.65 226.94 235.91C226.94 235.91 228.89 213.57 229.94 201.91C231.37 186.13 232.11 178.22 231.31 174.82C230.6 171.82 216.45 153.97 213.18 148.95L243.25 166.42C242.666 170.846 242.372 175.306 242.37 179.77C242.7 192.3 244.24 217.31 244.24 217.31C244.24 217.31 251.13 220.39 254.54 217.73C254.54 217.73 263.21 163.03 263.21 158.54C263.21 151.72 233.58 131.36 227.97 126.61C224.77 123.91 221.2 121.02 221.2 121.02L178.71 131.58Z" fill="black"/>
<path opacity="0.1" d="M213.18 149C216.347 146.445 218.729 143.048 220.05 139.2C219.889 141.71 219.531 144.205 218.98 146.66C218.17 149.91 243.25 166.47 243.25 166.47L213.18 149Z" fill="black"/>
<path d="M230.6 97.59C230.6 97.59 232.26 82.67 232.26 77.21C232.26 71.36 229.79 67.9 222.19 67.73C222.19 67.73 216.67 105.49 219.66 108.34C221.3 109.9 228.46 112.25 235.58 114.34L239.51 103C236.83 101.4 233.87 99.6 230.6 97.59Z" fill="#FFA8A7"/>
<path d="M221 67.1699C221 67.1699 227.28 67.3299 230.07 69.9999C232.86 72.6699 232.93 74.9499 232.64 79.8799C232.35 84.8099 231.37 97.5999 231.37 97.5999C231.37 97.5999 226.65 102.06 216.05 101.6L221 67.1699Z" fill="#E0E0E0"/>
<path d="M190.64 75.66C188.39 79.04 181.74 96.1 178.47 133.22C185.11 140.44 217.81 142.03 227.97 126.64C227.97 126.64 231.39 95.8 231.32 88.43C231.27 83.32 231.13 70.98 222.19 67.73H210.48L197.13 70C194.518 71.3006 192.284 73.2494 190.64 75.66Z" fill="#F5F5F5"/>
<path d="M209.7 37.9998C209.574 40.655 210.239 43.2878 211.61 45.5653C212.981 47.8429 214.996 49.6627 217.401 50.7949C219.806 51.927 222.493 52.3205 225.121 51.9257C227.75 51.5309 230.203 50.3654 232.169 48.5767C234.135 46.788 235.527 44.4564 236.168 41.8767C236.809 39.297 236.671 36.5851 235.771 34.0839C234.871 31.5828 233.25 29.4047 231.112 27.8251C228.974 26.2455 226.415 25.3354 223.76 25.2098C221.997 25.1251 220.234 25.3888 218.573 25.986C216.912 26.5831 215.384 27.5019 214.078 28.6898C212.773 29.8777 211.714 31.3114 210.962 32.9089C210.211 34.5064 209.782 36.2364 209.7 37.9998Z" fill="#263238"/>
<path d="M199.47 47.1099C199.47 47.1099 201.16 57.4299 201.95 59.1099C202.483 60.1707 203.403 60.9867 204.52 61.3899L204.71 54.1999L199.47 47.1099Z" fill="#263238"/>
<path d="M202.89 32.5998C202.133 32.4757 201.358 32.5255 200.624 32.7456C199.889 32.9656 199.214 33.3501 198.65 33.8698C196.78 35.6098 197.5 41.3898 199.47 47.1098L203.54 47.7698L202.89 32.5998Z" fill="#263238"/>
<path d="M204.77 47.8299C203.93 48.2799 202.83 46.6499 201.87 45.5399C200.91 44.4299 197.66 42.8299 195.87 46.2299C194.08 49.6299 196.94 54.5199 199.5 55.4599C203.92 57.0799 204.73 54.2399 204.73 54.2399L204.31 70.4399C207.97 74.9399 221.99 78.9299 218.93 70.6999L219.15 65.7699C221.123 66.1818 223.134 66.3829 225.15 66.3699C228.48 66.0199 230.68 63.5099 231.85 59.9899C233.73 54.3299 234.56 49.7199 233.73 38.3699C232.82 25.9399 218.44 25.1299 210.44 29.6499C202.44 34.1699 204.77 47.8299 204.77 47.8299Z" fill="#FFA8A7"/>
<path d="M204.71 49.2098C204.34 49.0198 202.84 46.5198 201.87 45.5398C200.51 44.1898 202.87 32.5998 202.87 32.5998C202.547 31.5714 202.531 30.4711 202.824 29.4338C203.117 28.3964 203.707 27.4672 204.52 26.7598C205.946 25.2706 207.741 24.1848 209.721 23.6123C211.702 23.0399 213.799 23.001 215.8 23.4998C219.376 24.3072 222.991 24.9346 226.63 25.3798C230.426 25.8047 234.268 25.3496 237.86 24.0498C238.166 26.0764 237.924 28.1479 237.16 30.0498C236.35 31.8303 234.999 33.3103 233.3 34.2798C231.38 35.3898 229.43 36.0598 225.42 36.2198C220.483 36.4998 215.534 35.966 210.77 34.6398C209.26 34.3598 208.86 35.8198 207.85 39.8198C207 43.2798 207.9 50.9198 204.71 49.2098Z" fill="#263238"/>
<path d="M202.86 33.51L198 30.6C198.175 30.2732 198.414 29.9854 198.703 29.7538C198.993 29.5222 199.326 29.3517 199.683 29.2526C200.04 29.1535 200.414 29.1279 200.781 29.1773C201.148 29.2267 201.502 29.3501 201.82 29.54C202.465 29.9458 202.932 30.582 203.125 31.3193C203.318 32.0567 203.223 32.84 202.86 33.51Z" fill="#263238"/>
<path d="M219.13 65.7698C219.13 65.7698 211.83 63.9398 209.32 62.4498C207.844 61.5888 206.663 60.3028 205.93 58.7598C206.248 60.285 206.87 61.7305 207.76 63.0098C209.52 65.5098 219.04 67.7298 219.04 67.7298L219.13 65.7698Z" fill="#F28F8F"/>
<path d="M221 47.4097C220.974 47.6984 220.864 47.9732 220.684 48.2C220.503 48.4268 220.26 48.5956 219.985 48.6854C219.709 48.7753 219.413 48.7822 219.134 48.7054C218.854 48.6286 218.603 48.4715 218.413 48.2534C218.222 48.0354 218.099 47.766 218.06 47.4789C218.02 47.1917 218.066 46.8993 218.192 46.638C218.317 46.3767 218.516 46.1579 218.765 46.0089C219.014 45.8599 219.3 45.7872 219.59 45.7997C219.989 45.8305 220.36 46.0162 220.623 46.3172C220.887 46.6181 221.022 47.0103 221 47.4097Z" fill="#263238"/>
<path d="M219.7 42.31L216.46 43.91C216.257 43.4653 216.233 42.9595 216.393 42.4976C216.553 42.0357 216.885 41.6533 217.32 41.43C217.533 41.3253 217.765 41.265 218.002 41.2528C218.239 41.2406 218.476 41.2768 218.699 41.3591C218.922 41.4414 219.125 41.5682 219.297 41.7316C219.469 41.8951 219.606 42.0919 219.7 42.31Z" fill="#263238"/>
<path d="M218.88 56.8696L222.19 58.2996C222.105 58.5214 221.977 58.7239 221.812 58.8951C221.648 59.0662 221.45 59.2025 221.232 59.2958C221.014 59.3891 220.779 59.4375 220.541 59.4382C220.304 59.4388 220.069 59.3917 219.85 59.2996C219.408 59.096 219.061 58.7304 218.88 58.2782C218.7 57.826 218.699 57.3218 218.88 56.8696Z" fill="#F28F8F"/>
<path d="M232.5 43.7699L229.73 41.4199C229.873 41.2306 230.054 41.0727 230.261 40.9558C230.467 40.839 230.696 40.7657 230.932 40.7404C231.168 40.7151 231.406 40.7384 231.633 40.8088C231.86 40.8792 232.07 40.9953 232.25 41.1499C232.622 41.4698 232.855 41.9212 232.902 42.4096C232.949 42.8979 232.805 43.3853 232.5 43.7699Z" fill="#263238"/>
<path d="M231.62 46.8697C231.594 47.1588 231.484 47.4339 231.303 47.6608C231.122 47.8877 230.878 48.0563 230.602 48.1458C230.326 48.2352 230.03 48.2415 229.75 48.1638C229.47 48.0862 229.22 47.928 229.029 47.709C228.839 47.4899 228.717 47.2197 228.679 46.932C228.641 46.6443 228.688 46.3517 228.815 46.0906C228.942 45.8296 229.143 45.6117 229.393 45.4639C229.642 45.3162 229.93 45.2451 230.22 45.2597C230.418 45.2723 230.612 45.3242 230.79 45.4122C230.967 45.5002 231.126 45.6226 231.256 45.7723C231.387 45.9221 231.486 46.0962 231.548 46.2845C231.611 46.4729 231.635 46.6718 231.62 46.8697Z" fill="#263238"/>
<path d="M225.12 45.25L223.89 54.13L229.31 53.8L225.12 45.25Z" fill="#F28F8F"/>
<path d="M191.08 242.41L107.14 193.95L264.67 103.04L348.6 151.5L191.08 242.41Z" fill="#455A64"/>
<path d="M107.14 193.95V290.87L111.56 293.42V227.11L186.66 270.47V336.78L191.08 339.33V242.41L107.14 193.95Z" fill="#263238"/>
<path d="M111.56 293.42L115.98 290.87V229.66L111.56 227.11V293.42Z" fill="black"/>
<path d="M191.08 339.33L195.5 336.78V270.47L344.19 184.66V250.97L348.6 248.42V151.5L191.08 242.41V339.33Z" fill="#37474F"/>
<path d="M344.19 250.97L339.77 248.42V187.21L344.19 184.66V250.97Z" fill="#263238"/>
<path d="M190.43 185.27L157 204.58C156.707 204.728 156.383 204.805 156.055 204.805C155.727 204.805 155.403 204.728 155.11 204.58L130.49 190.37C130.378 190.329 130.282 190.255 130.214 190.158C130.145 190.06 130.109 189.944 130.109 189.825C130.109 189.706 130.145 189.59 130.214 189.492C130.282 189.395 130.378 189.321 130.49 189.28L163.92 170C164.212 169.852 164.534 169.775 164.86 169.775C165.187 169.775 165.509 169.852 165.8 170L190.43 184.22C190.53 184.267 190.614 184.341 190.673 184.434C190.732 184.527 190.764 184.635 190.764 184.745C190.764 184.855 190.732 184.963 190.673 185.056C190.614 185.149 190.53 185.223 190.43 185.27Z" fill="#EBEBEB"/>
<path d="M165.8 170L189.18 183.5L157 202.06C156.707 202.208 156.383 202.285 156.055 202.285C155.727 202.285 155.403 202.208 155.11 202.06L131.73 188.56L163.92 170C164.212 169.852 164.534 169.775 164.86 169.775C165.187 169.775 165.509 169.852 165.8 170Z" fill="#E0E0E0"/>
<path d="M190.43 181.86L157 201.18C156.707 201.327 156.383 201.404 156.055 201.404C155.727 201.404 155.403 201.327 155.11 201.18L130.46 187C130.348 186.959 130.252 186.885 130.183 186.787C130.115 186.69 130.079 186.574 130.079 186.455C130.079 186.336 130.115 186.22 130.183 186.122C130.252 186.025 130.348 185.95 130.46 185.91L163.92 166.59C164.212 166.442 164.534 166.365 164.86 166.365C165.187 166.365 165.509 166.442 165.8 166.59L190.43 180.81C190.533 180.853 190.621 180.926 190.683 181.02C190.745 181.113 190.778 181.223 190.778 181.335C190.778 181.447 190.745 181.556 190.683 181.65C190.621 181.743 190.533 181.816 190.43 181.86Z" fill="#FAFAFA"/>
<path d="M217.91 147.86V147.49C217.928 147.164 218.022 146.846 218.185 146.563C218.349 146.279 218.576 146.039 218.85 145.86L274.4 113.79C274.692 113.642 275.014 113.565 275.34 113.565C275.667 113.565 275.989 113.642 276.28 113.79L287.65 120.35C287.924 120.529 288.152 120.769 288.315 121.053C288.478 121.336 288.573 121.653 288.59 121.98V122.36C288.573 122.686 288.478 123.004 288.315 123.287C288.152 123.571 287.924 123.811 287.65 123.99L232.11 156.06C231.817 156.208 231.493 156.285 231.165 156.285C230.837 156.285 230.513 156.208 230.22 156.06L218.85 149.49C218.576 149.311 218.349 149.071 218.185 148.787C218.022 148.504 217.928 148.186 217.91 147.86Z" fill="#E0E0E0"/>
<path d="M218.85 146.94L230.22 153.51C230.512 153.658 230.834 153.734 231.16 153.734C231.487 153.734 231.809 153.658 232.1 153.51L287.65 121.44C287.762 121.399 287.859 121.325 287.927 121.228C287.995 121.13 288.032 121.014 288.032 120.895C288.032 120.776 287.995 120.66 287.927 120.562C287.859 120.465 287.762 120.391 287.65 120.35L276.28 113.79C275.989 113.642 275.667 113.565 275.34 113.565C275.014 113.565 274.692 113.642 274.4 113.79L218.85 145.86C218.737 145.898 218.639 145.971 218.57 146.068C218.5 146.164 218.463 146.281 218.463 146.4C218.463 146.519 218.5 146.635 218.57 146.732C218.639 146.829 218.737 146.902 218.85 146.94Z" fill="#FAFAFA"/>
<path d="M271.08 121.26C270.08 119.65 264.77 114.93 263.73 113.96C262.69 112.99 258.16 112.33 254.19 111.09C250.56 109.41 245.8 106.75 239.51 103L235.58 114.32C241.47 116.03 247.35 117.55 250.07 118.32C252.36 119.2 252.28 119.88 254.15 120.94C257.61 122.94 259.87 122.52 259.87 122.52C260.898 123.496 261.991 124.401 263.14 125.23C265.6 126.91 268.06 128.23 271.08 127.23C274.39 126.15 272.06 122.88 271.08 121.26Z" fill="#FFA8A7"/>
<path d="M257.08 194C260.3 190.71 262.2 182.5 259.08 179.9H243.08C239.94 182.5 241.83 190.7 245.08 193.99L245.17 194.08C245.202 194.121 245.239 194.158 245.28 194.19C245.37 194.284 245.467 194.371 245.57 194.45L245.65 194.51C245.726 194.578 245.806 194.642 245.89 194.7L246.3 194.96C247.788 195.715 249.432 196.108 251.1 196.108C252.768 196.108 254.413 195.715 255.9 194.96C256.045 194.877 256.185 194.787 256.32 194.69L256.55 194.52L256.64 194.45L256.92 194.2L257.05 194.07L257.08 194Z" fill="#EBEBEB"/>
<path d="M244.46 178.85C240.81 180.95 240.81 184.37 244.46 186.47C246.507 187.51 248.77 188.052 251.065 188.052C253.361 188.052 255.624 187.51 257.67 186.47C261.31 184.37 261.31 180.95 257.67 178.85C255.624 177.81 253.361 177.268 251.065 177.268C248.77 177.268 246.507 177.81 244.46 178.85Z" fill="#FAFAFA"/>
<path d="M247 180.34C244.79 181.62 244.79 183.7 247 184.98C248.241 185.604 249.611 185.929 251 185.929C252.389 185.929 253.759 185.604 255 184.98C257.22 183.7 257.22 181.62 255 180.34C253.759 179.715 252.389 179.39 251 179.39C249.611 179.39 248.241 179.715 247 180.34Z" fill="#EBEBEB"/>
<path d="M255.08 182.54C253.839 181.916 252.469 181.59 251.08 181.59C249.691 181.59 248.321 181.916 247.08 182.54C246.547 182.836 246.092 183.254 245.75 183.76C246.066 184.264 246.494 184.688 247 185C248.241 185.624 249.611 185.949 251 185.949C252.389 185.949 253.759 185.624 255 185C255.537 184.709 255.994 184.29 256.33 183.78C256.019 183.272 255.591 182.847 255.08 182.54Z" fill="#E0E0E0"/>
<path d="M247.53 183.76C246.397 182.607 245.422 181.309 244.63 179.9C243.28 177.52 243.04 174.34 243.73 173.95C244.42 173.56 247.25 176.73 247.25 176.73C246.993 175.413 246.892 174.07 246.95 172.73C247.07 170.61 247.59 168.73 248.19 168.31C248.79 167.89 250.19 170.59 250.73 172.52C251.27 174.45 251.66 176.04 251.66 176.04C251.883 174.534 252.217 173.046 252.66 171.59C253.37 169.59 254 169.13 254.5 169.33C255 169.53 255.32 170.46 255.5 173.14C255.552 174.414 255.512 175.691 255.38 176.96C255.38 176.96 256.38 175.87 257.48 174.8C258.58 173.73 259.21 173.48 259.56 173.7C259.91 173.92 260 175.7 258.12 179.14C257.186 180.871 255.988 182.446 254.57 183.81C254.57 183.81 252 185.44 247.53 183.76Z" fill="#6C5CE7"/>
<path d="M234.85 209.55C234.949 209.506 235.035 209.437 235.098 209.349C235.161 209.261 235.2 209.158 235.21 209.05V208.28L198 187.28C197.733 187.142 197.436 187.07 197.135 187.07C196.834 187.07 196.538 187.142 196.27 187.28L162.83 206.58L201.42 228.85L234.85 209.55Z" fill="#6C5CE7"/>
<path opacity="0.2" d="M234.85 209.55C234.949 209.506 235.035 209.437 235.098 209.349C235.161 209.261 235.2 209.158 235.21 209.05V208.28L198 187.28C197.733 187.142 197.436 187.07 197.135 187.07C196.834 187.07 196.538 187.142 196.27 187.28L162.83 206.58L201.42 228.85L234.85 209.55Z" fill="black"/>
<path d="M234.85 208.8C234.954 208.763 235.043 208.696 235.107 208.606C235.17 208.517 235.204 208.41 235.204 208.3C235.204 208.19 235.17 208.083 235.107 207.993C235.043 207.904 234.954 207.836 234.85 207.8L198 186.53C197.733 186.392 197.436 186.32 197.135 186.32C196.834 186.32 196.538 186.392 196.27 186.53L162.83 205.83L201.42 228.1L234.85 208.8Z" fill="#6C5CE7"/>
<path opacity="0.5" d="M234.85 208.8C234.954 208.763 235.043 208.696 235.107 208.606C235.17 208.517 235.204 208.41 235.204 208.3C235.204 208.19 235.17 208.083 235.107 207.993C235.043 207.904 234.954 207.836 234.85 207.8L198 186.53C197.733 186.392 197.436 186.32 197.135 186.32C196.834 186.32 196.538 186.392 196.27 186.53L162.83 205.83L201.42 228.1L234.85 208.8Z" fill="black"/>
<path d="M170.53 200.79L195.28 186.5C195.551 186.369 195.849 186.301 196.15 186.301C196.451 186.301 196.749 186.369 197.02 186.5L231.02 206.12L234.24 204.25V208.06H234.18C234.29 208.29 234.18 208.55 233.89 208.73L205.53 225.1L166.94 202.83V198.67L170.53 200.79Z" fill="#EBEBEB"/>
<path d="M233.87 204.61C233.974 204.573 234.063 204.505 234.127 204.416C234.19 204.326 234.224 204.219 234.224 204.11C234.224 204 234.19 203.893 234.127 203.803C234.063 203.714 233.974 203.646 233.87 203.61L197 182.34C196.731 182.202 196.433 182.13 196.13 182.13C195.828 182.13 195.529 182.202 195.26 182.34L166.9 198.71L205.51 221L233.87 204.61Z" fill="#FAFAFA"/>
<path d="M205.51 220.97V225.14L166.92 202.87V198.71L205.51 220.97Z" fill="#E6E6E6"/>
<path d="M205.05 219.34C205.151 219.393 205.258 219.43 205.37 219.45C205.537 219.494 205.713 219.494 205.88 219.45C205.937 219.44 205.991 219.42 206.04 219.39C206.3 219.25 206.27 218.99 205.97 218.82C205.831 218.745 205.678 218.701 205.52 218.69C205.335 218.665 205.147 218.697 204.98 218.78C204.964 218.775 204.947 218.775 204.93 218.78C204.73 219 204.77 219.18 205.05 219.34Z" fill="#263238"/>
<path d="M200.68 222.6C200.657 223.116 200.813 223.624 201.12 224.04C201.268 224.227 201.456 224.377 201.671 224.479C201.886 224.582 202.122 224.633 202.36 224.63C202.785 224.618 203.199 224.494 203.56 224.27L203.78 224.14L203.29 223.86C202.11 224.52 201.17 223.96 201.17 222.6C201.212 221.857 201.427 221.134 201.798 220.49C202.17 219.845 202.688 219.297 203.31 218.89C203.539 218.715 203.815 218.613 204.103 218.599C204.39 218.585 204.675 218.658 204.92 218.81C205.137 218.965 205.293 219.191 205.36 219.45C205.527 219.494 205.703 219.494 205.87 219.45C205.812 219.171 205.689 218.911 205.51 218.69C205.362 218.505 205.173 218.356 204.958 218.255C204.743 218.155 204.508 218.105 204.27 218.11C203.841 218.125 203.424 218.253 203.06 218.48C202.363 218.926 201.782 219.533 201.368 220.25C200.954 220.967 200.718 221.773 200.68 222.6Z" fill="#263238"/>
<path d="M201.93 218.67L235.21 202.4V203C235.199 203.149 235.155 203.294 235.08 203.424C235.006 203.554 234.903 203.665 234.78 203.75L201.93 219.47V218.67Z" fill="#6C5CE7"/>
<path opacity="0.2" d="M201.93 218.67L235.21 202.4V203C235.199 203.149 235.155 203.294 235.08 203.424C235.006 203.554 234.903 203.665 234.78 203.75L201.93 219.47V218.67Z" fill="black"/>
<path d="M234.85 202.9C235.33 202.62 235.33 202.17 234.85 201.9L198 180.63C197.733 180.492 197.436 180.42 197.135 180.42C196.834 180.42 196.538 180.492 196.27 180.63L162.83 196.68L201.42 219L234.85 202.9Z" fill="#6C5CE7"/>
<path d="M201.42 228.85L162.83 206.58V196.67L201.42 218.95V228.85Z" fill="#6C5CE7"/>
<path opacity="0.1" d="M201.42 228.85L162.83 206.58V196.67L201.42 218.95V228.85Z" fill="black"/>
<path d="M193.81 222.49C194.05 222.492 194.287 222.441 194.503 222.339C194.72 222.236 194.91 222.086 195.06 221.9C195.362 221.482 195.517 220.975 195.5 220.46C195.457 219.627 195.217 218.817 194.799 218.096C194.382 217.375 193.8 216.762 193.1 216.31C192.736 216.084 192.318 215.96 191.89 215.95C190.89 215.95 190.21 216.77 190.21 217.95C190.25 218.782 190.488 219.592 190.903 220.314C191.319 221.035 191.901 221.648 192.6 222.1C192.965 222.324 193.382 222.448 193.81 222.46V222.49Z" fill="#455A64"/>
<path d="M195 220.46C195 221.83 194 222.38 192.85 221.7C192.227 221.291 191.709 220.741 191.337 220.095C190.965 219.449 190.751 218.724 190.71 217.98C190.71 216.62 191.71 216.06 192.85 216.75C193.473 217.158 193.992 217.706 194.366 218.35C194.739 218.994 194.956 219.717 195 220.46Z" fill="#F5F5F5"/>
<path d="M187.22 215.48V216.23C187.22 217.73 186.16 218.34 184.86 217.59L168.14 207.94C167.455 207.492 166.884 206.889 166.474 206.18C166.064 205.472 165.827 204.677 165.78 203.86V203.11C165.78 201.61 166.84 201 168.14 201.75L184.86 211.4C185.546 211.847 186.117 212.449 186.527 213.158C186.937 213.867 187.174 214.662 187.22 215.48Z" fill="#F5F5F5"/>
<path d="M201.94 228.56V218.7L201.42 218.95V228.85L201.94 228.56Z" fill="#6C5CE7"/>
<path opacity="0.2" d="M201.94 228.56V218.7L201.42 218.95V228.85L201.94 228.56Z" fill="black"/>
<path d="M163.19 195.13C163.202 195.25 163.241 195.366 163.306 195.468C163.37 195.571 163.457 195.657 163.56 195.72L201.41 217.55C201.526 217.608 201.655 217.639 201.785 217.639C201.915 217.639 202.044 217.608 202.16 217.55L236.07 200.4V199.64L197.49 177.37L163.56 194.53C163.457 194.595 163.37 194.683 163.306 194.787C163.241 194.891 163.202 195.008 163.19 195.13Z" fill="#6C5CE7"/>
<path opacity="0.1" d="M201.78 216.89V217.64C201.648 217.642 201.517 217.611 201.4 217.55L163.57 195.73C163.465 195.666 163.376 195.578 163.31 195.474C163.244 195.37 163.203 195.252 163.19 195.13C163.202 195.007 163.243 194.889 163.309 194.785C163.375 194.68 163.464 194.593 163.57 194.53C163.36 194.65 163.36 194.84 163.57 194.96L201.4 216.8C201.516 216.866 201.647 216.897 201.78 216.89Z" fill="black"/>
<path opacity="0.5" d="M236.07 199.64L202.16 216.8C202.044 216.865 201.913 216.896 201.78 216.89C201.647 216.897 201.515 216.866 201.4 216.8L163.57 195C163.36 194.88 163.36 194.69 163.57 194.57L197.5 177.41L236.07 199.64Z" fill="black"/>
<path opacity="0.2" d="M236.07 199.64V200.4L202.16 217.55C202.044 217.615 201.913 217.646 201.78 217.64V216.89C201.913 216.896 202.044 216.865 202.16 216.8L236.07 199.64Z" fill="black"/>
<path d="M235.56 199.94L196.96 177.68V167.76L235.56 190.14V199.94Z" fill="#6C5CE7"/>
<path opacity="0.7" d="M235.56 199.94L196.96 177.68V167.76L235.56 190.14V199.94Z" fill="black"/>
<path d="M163.66 189.79C163.522 189.88 163.406 190.001 163.323 190.143C163.24 190.285 163.191 190.445 163.18 190.61V192.61C163.188 192.774 163.235 192.933 163.319 193.075C163.403 193.216 163.52 193.335 163.66 193.42L201.31 215.14C201.455 215.217 201.616 215.257 201.78 215.257C201.944 215.257 202.106 215.217 202.25 215.14L231 199.6V196.51L192.42 174.24L163.66 189.79Z" fill="#EBEBEB"/>
<path d="M192.42 174.24L163.66 189.79C163.602 189.809 163.552 189.846 163.517 189.895C163.481 189.945 163.462 190.004 163.462 190.065C163.462 190.126 163.481 190.185 163.517 190.234C163.552 190.283 163.602 190.32 163.66 190.34L201.31 212.06C201.455 212.137 201.616 212.177 201.78 212.177C201.944 212.177 202.105 212.137 202.25 212.06L231 196.51L192.42 174.24Z" fill="#FAFAFA"/>
<path d="M227.34 196.76C227.44 196.813 227.548 196.85 227.66 196.87C227.827 196.914 228.003 196.914 228.17 196.87C228.227 196.86 228.281 196.84 228.33 196.81C228.59 196.67 228.56 196.41 228.26 196.24C228.121 196.165 227.968 196.121 227.81 196.11C227.625 196.085 227.437 196.117 227.27 196.2C227 196.38 227.06 196.6 227.34 196.76Z" fill="#263238"/>
<path d="M201.78 212.16V215.26C201.614 215.264 201.449 215.226 201.3 215.15L163.65 193.44C163.516 193.347 163.405 193.225 163.325 193.083C163.246 192.941 163.199 192.782 163.19 192.62V190.62C163.206 190.34 163.332 190.077 163.54 189.89C163.4 190.03 163.44 190.22 163.65 190.35L201.3 212.06C201.447 212.139 201.614 212.174 201.78 212.16Z" fill="#E6E6E6"/>
<path d="M232.37 192.47C232.066 192.309 231.724 192.234 231.38 192.253C231.036 192.273 230.704 192.386 230.42 192.58C229.084 193.526 228.138 194.927 227.76 196.52L228.4 196.62C228.744 195.217 229.573 193.981 230.74 193.13C230.987 192.984 231.264 192.899 231.55 192.88C231.724 192.878 231.894 192.926 232.04 193.02C232.344 193.289 232.574 193.632 232.709 194.015C232.844 194.398 232.879 194.809 232.81 195.21C232.75 197.27 231.58 199.59 230.19 200.39C229.893 200.579 229.541 200.664 229.19 200.63L228.49 201.03C228.738 201.177 229.022 201.253 229.31 201.25C229.711 201.24 230.101 201.123 230.44 200.91C232.02 200 233.31 197.49 233.38 195.2C233.457 194.697 233.405 194.182 233.229 193.704C233.052 193.227 232.756 192.802 232.37 192.47Z" fill="#263238"/>
<path d="M163.19 188.83C163.202 188.952 163.241 189.069 163.306 189.173C163.37 189.277 163.457 189.365 163.56 189.43L201.41 211.26C201.526 211.319 201.655 211.35 201.785 211.35C201.915 211.35 202.044 211.319 202.16 211.26L236.07 190.53V189.78L197.49 167.5L163.56 188.24C163.457 188.303 163.37 188.389 163.306 188.491C163.241 188.594 163.202 188.71 163.19 188.83Z" fill="#6C5CE7"/>
<path opacity="0.1" d="M201.78 210.59V211.34C201.649 211.341 201.52 211.313 201.4 211.26L163.57 189.43C163.455 189.377 163.358 189.293 163.29 189.186C163.221 189.08 163.185 188.956 163.185 188.83C163.185 188.704 163.221 188.58 163.29 188.474C163.358 188.367 163.455 188.283 163.57 188.23C163.523 188.244 163.482 188.273 163.452 188.313C163.423 188.353 163.407 188.401 163.407 188.45C163.407 188.499 163.423 188.547 163.452 188.587C163.482 188.626 163.523 188.656 163.57 188.67L201.4 210.51C201.518 210.568 201.649 210.595 201.78 210.59Z" fill="black"/>
<path d="M236.07 189.78L202.16 210.51C202.042 210.567 201.911 210.595 201.78 210.59C201.649 210.595 201.518 210.568 201.4 210.51L163.57 188.67C163.523 188.656 163.482 188.626 163.452 188.587C163.423 188.547 163.407 188.499 163.407 188.45C163.407 188.401 163.423 188.353 163.452 188.313C163.482 188.274 163.523 188.244 163.57 188.23L197.5 167.5L236.07 189.78Z" fill="#6C5CE7"/>
<path opacity="0.2" d="M236.07 189.78V190.53L202.16 211.26C202.042 211.317 201.911 211.344 201.78 211.34V210.59C201.911 210.594 202.042 210.567 202.16 210.51L236.07 189.78Z" fill="black"/>
<path d="M236.07 199.64V189.79L235.56 190.14V199.94L236.07 199.64Z" fill="#6C5CE7"/>
<path opacity="0.2" d="M236.07 199.64V189.79L235.56 190.14V199.94L236.07 199.64Z" fill="black"/>
<path d="M234.85 189.63C234.949 189.586 235.035 189.516 235.098 189.429C235.161 189.341 235.2 189.238 235.21 189.13V188.36L198 167.36C197.73 167.23 197.435 167.163 197.135 167.163C196.836 167.163 196.54 167.23 196.27 167.36L162.83 186.67L201.42 208.94L234.85 189.63Z" fill="#6C5CE7"/>
<path opacity="0.2" d="M234.85 189.63C234.949 189.586 235.035 189.516 235.098 189.429C235.161 189.341 235.2 189.238 235.21 189.13V188.36L198 167.36C197.73 167.23 197.435 167.163 197.135 167.163C196.836 167.163 196.54 167.23 196.27 167.36L162.83 186.67L201.42 208.94L234.85 189.63Z" fill="black"/>
<path d="M234.85 188.88C235.33 188.6 235.33 188.15 234.85 187.88L198 166.6C197.73 166.471 197.435 166.403 197.135 166.403C196.836 166.403 196.54 166.471 196.27 166.6L162.83 185.91L201.42 208.18L234.85 188.88Z" fill="#6C5CE7"/>
<path opacity="0.5" d="M234.85 188.88C235.33 188.6 235.33 188.15 234.85 187.88L198 166.6C197.73 166.471 197.435 166.403 197.135 166.403C196.836 166.403 196.54 166.471 196.27 166.6L162.83 185.91L201.42 208.18L234.85 188.88Z" fill="black"/>
<path d="M170.53 180.87L195.28 166.58C195.549 166.442 195.848 166.37 196.15 166.37C196.453 166.37 196.751 166.442 197.02 166.58L231.02 186.2L234.24 184.32V188.14H234.18C234.206 188.203 234.219 188.272 234.219 188.34C234.218 188.409 234.204 188.477 234.177 188.54C234.15 188.604 234.111 188.661 234.062 188.709C234.012 188.757 233.954 188.794 233.89 188.82L205.53 205.18L166.92 183V178.83L170.53 180.87Z" fill="#EBEBEB"/>
<path d="M233.87 184.69C233.974 184.653 234.063 184.586 234.127 184.496C234.19 184.406 234.224 184.299 234.224 184.19C234.224 184.08 234.19 183.973 234.127 183.883C234.063 183.794 233.974 183.726 233.87 183.69L197 162.41C196.729 162.279 196.431 162.21 196.13 162.21C195.829 162.21 195.531 162.279 195.26 162.41L166.9 178.78L205.49 201.05L233.87 184.69Z" fill="#FAFAFA"/>
<path d="M205.51 201.05V205.21L166.92 182.95V178.78L205.51 201.05Z" fill="#E6E6E6"/>
<path d="M205.05 199.42C205.151 199.473 205.258 199.51 205.37 199.53C205.537 199.574 205.713 199.574 205.88 199.53C205.937 199.52 205.991 199.5 206.04 199.47C206.3 199.33 206.27 199.07 205.97 198.9C205.831 198.825 205.678 198.781 205.52 198.77C205.335 198.745 205.147 198.777 204.98 198.86C204.964 198.855 204.947 198.855 204.93 198.86C204.73 199 204.77 199.26 205.05 199.42Z" fill="#263238"/>
<path d="M200.68 202.68C200.657 203.196 200.813 203.705 201.12 204.12C201.268 204.307 201.456 204.457 201.671 204.56C201.886 204.662 202.122 204.713 202.36 204.71C202.785 204.698 203.199 204.574 203.56 204.35L203.78 204.22L203.29 203.94C202.11 204.6 201.17 204.04 201.17 202.68C201.212 201.937 201.427 201.214 201.798 200.57C202.17 199.925 202.688 199.377 203.31 198.97C203.539 198.795 203.815 198.693 204.103 198.679C204.39 198.665 204.675 198.738 204.92 198.89C205.137 199.045 205.293 199.271 205.36 199.53C205.527 199.574 205.703 199.574 205.87 199.53C205.812 199.251 205.689 198.991 205.51 198.77C205.362 198.585 205.173 198.436 204.958 198.335C204.743 198.235 204.508 198.185 204.27 198.19C203.842 198.201 203.425 198.325 203.06 198.55C202.363 198.999 201.783 199.608 201.369 200.326C200.955 201.044 200.719 201.851 200.68 202.68Z" fill="#263238"/>
<path d="M201.93 198.74L235.21 182.48V183C235.199 183.149 235.155 183.294 235.08 183.424C235.006 183.554 234.903 183.665 234.78 183.75L201.93 199.5V198.74Z" fill="#6C5CE7"/>
<path opacity="0.2" d="M201.93 198.74L235.21 182.48V183C235.199 183.149 235.155 183.294 235.08 183.424C235.006 183.554 234.903 183.665 234.78 183.75L201.93 199.5V198.74Z" fill="black"/>
<path d="M234.85 183C235.33 182.73 235.33 182.28 234.85 182L198 160.7C197.73 160.57 197.435 160.503 197.135 160.503C196.836 160.503 196.54 160.57 196.27 160.7L162.83 176.76L201.42 199L234.85 183Z" fill="#6C5CE7"/>
<path d="M201.42 208.93L162.83 186.66V176.74L201.42 199.03V208.93Z" fill="#6C5CE7"/>
<path opacity="0.1" d="M201.42 208.93L162.83 186.66V176.74L201.42 199.03V208.93Z" fill="black"/>
<path d="M193.81 202.57C194.05 202.573 194.287 202.521 194.503 202.419C194.72 202.317 194.91 202.166 195.06 201.98C195.362 201.562 195.517 201.055 195.5 200.54C195.457 199.708 195.217 198.897 194.799 198.176C194.382 197.455 193.8 196.843 193.1 196.39C192.736 196.164 192.318 196.04 191.89 196.03C190.89 196.03 190.21 196.85 190.21 198.03C190.25 198.862 190.488 199.672 190.903 200.394C191.319 201.116 191.901 201.728 192.6 202.18C192.965 202.404 193.382 202.528 193.81 202.54V202.57Z" fill="#455A64"/>
<path d="M195 200.54C195 201.9 194 202.46 192.85 201.77C192.227 201.363 191.708 200.815 191.336 200.171C190.964 199.526 190.75 198.803 190.71 198.06C190.71 196.69 191.71 196.14 192.85 196.82C193.473 197.23 193.991 197.78 194.365 198.426C194.738 199.071 194.955 199.795 195 200.54Z" fill="#F5F5F5"/>
<path d="M187.22 195.56V196.31C187.22 197.81 186.16 198.42 184.86 197.67L168.14 188C167.453 187.554 166.881 186.952 166.471 186.243C166.061 185.534 165.824 184.738 165.78 183.92V183.17C165.78 181.67 166.84 181.06 168.14 181.82L184.86 191.47C185.547 191.918 186.119 192.522 186.529 193.233C186.939 193.943 187.176 194.741 187.22 195.56Z" fill="#F5F5F5"/>
<path d="M201.94 208.63V198.77L201.42 199.03V208.93L201.94 208.63Z" fill="#6C5CE7"/>
<path opacity="0.2" d="M201.94 208.63V198.77L201.42 199.03V208.93L201.94 208.63Z" fill="black"/>
<path d="M163.19 174.61C163.202 174.731 163.241 174.849 163.306 174.953C163.37 175.057 163.457 175.145 163.56 175.21L201.41 197C201.526 197.059 201.655 197.089 201.785 197.089C201.915 197.089 202.044 197.059 202.16 197L236.07 179.85V179.09L197.49 156.82L163.56 174C163.456 174.066 163.368 174.155 163.303 174.261C163.239 174.367 163.2 174.486 163.19 174.61Z" fill="#6C5CE7"/>
<path opacity="0.1" d="M201.78 196.38V197.13C201.649 197.128 201.519 197.097 201.4 197.04L163.57 175.21C163.458 175.156 163.363 175.072 163.297 174.967C163.231 174.861 163.196 174.739 163.196 174.615C163.196 174.491 163.231 174.369 163.297 174.264C163.363 174.158 163.458 174.074 163.57 174.02C163.36 174.14 163.36 174.33 163.57 174.45L201.4 196.29C201.517 196.351 201.648 196.382 201.78 196.38Z" fill="black"/>
<path opacity="0.5" d="M236.07 179.13L202.16 196.29C202.043 196.35 201.912 196.381 201.78 196.38C201.648 196.382 201.517 196.351 201.4 196.29L163.57 174.45C163.36 174.33 163.36 174.14 163.57 174.02L197.5 156.86L236.07 179.13Z" fill="black"/>
<path opacity="0.2" d="M236.07 179.13V179.89L202.16 197C202.044 197.065 201.913 197.096 201.78 197.09V196.34C201.912 196.341 202.042 196.31 202.16 196.25L236.07 179.13Z" fill="black"/>
<path d="M235.56 179.43L196.96 157.17V147.25L235.56 169.63V179.43Z" fill="#6C5CE7"/>
<path opacity="0.7" d="M235.56 179.43L196.96 157.17V147.25L235.56 169.63V179.43Z" fill="black"/>
<path d="M163.66 169.28C163.522 169.37 163.406 169.491 163.323 169.633C163.24 169.775 163.191 169.935 163.18 170.1V172.1C163.191 172.264 163.24 172.424 163.323 172.567C163.406 172.709 163.522 172.83 163.66 172.92L201.31 194.64C201.455 194.717 201.616 194.757 201.78 194.757C201.944 194.757 202.106 194.717 202.25 194.64L231 179.09V176L192.42 153.72L163.66 169.28Z" fill="#EBEBEB"/>
<path d="M192.42 153.72L163.66 169.28C163.601 169.296 163.549 169.331 163.512 169.38C163.474 169.429 163.454 169.488 163.454 169.55C163.454 169.611 163.474 169.671 163.512 169.719C163.549 169.768 163.601 169.803 163.66 169.82L201.31 191.55C201.455 191.627 201.616 191.667 201.78 191.667C201.944 191.667 202.106 191.627 202.25 191.55L231 176L192.42 153.72Z" fill="#FAFAFA"/>
<path d="M227.34 176.25C227.44 176.303 227.548 176.34 227.66 176.36C227.827 176.404 228.003 176.404 228.17 176.36C228.227 176.35 228.281 176.33 228.33 176.3C228.59 176.16 228.56 175.9 228.26 175.73C228.121 175.655 227.968 175.611 227.81 175.6C227.625 175.576 227.437 175.607 227.27 175.69C227 175.87 227.06 176.09 227.34 176.25Z" fill="#263238"/>
<path d="M201.78 191.65V194.75C201.614 194.754 201.449 194.716 201.3 194.64L163.65 172.92C163.514 172.832 163.4 172.713 163.32 172.572C163.24 172.431 163.195 172.272 163.19 172.11V170.11C163.194 169.971 163.228 169.834 163.288 169.708C163.348 169.582 163.434 169.47 163.54 169.38C163.4 169.52 163.44 169.7 163.65 169.83L201.3 191.55C201.447 191.63 201.614 191.664 201.78 191.65Z" fill="#E6E6E6"/>
<path d="M232.37 172C232.065 171.84 231.722 171.767 231.379 171.788C231.035 171.809 230.704 171.924 230.42 172.12C229.084 173.066 228.138 174.467 227.76 176.06L228.4 176.16C228.742 174.756 229.571 173.519 230.74 172.67C230.985 172.52 231.264 172.434 231.55 172.42C231.722 172.42 231.891 172.465 232.04 172.55C232.344 172.821 232.574 173.166 232.709 173.55C232.844 173.935 232.878 174.348 232.81 174.75C232.75 176.81 231.58 179.13 230.19 179.93C229.893 180.119 229.541 180.204 229.19 180.17L228.49 180.57C228.74 180.712 229.023 180.788 229.31 180.79C229.711 180.78 230.101 180.662 230.44 180.45C232.02 179.54 233.31 177.03 233.38 174.74C233.459 174.235 233.408 173.718 233.231 173.239C233.054 172.759 232.758 172.333 232.37 172Z" fill="#263238"/>
<path d="M163.19 168.32C163.202 168.44 163.241 168.556 163.306 168.659C163.37 168.761 163.457 168.847 163.56 168.91L201.41 190.74C201.526 190.799 201.655 190.83 201.785 190.83C201.915 190.83 202.044 190.799 202.16 190.74L236.07 170V169.24L197.49 147L163.56 167.73C163.458 167.794 163.372 167.88 163.308 167.983C163.244 168.085 163.203 168.2 163.19 168.32Z" fill="#6C5CE7"/>
<path opacity="0.1" d="M201.78 190.08V190.83C201.648 190.832 201.517 190.801 201.4 190.74L163.57 168.92C163.465 168.856 163.376 168.768 163.31 168.664C163.244 168.56 163.203 168.442 163.19 168.32C163.202 168.197 163.243 168.079 163.309 167.975C163.375 167.87 163.464 167.783 163.57 167.72C163.36 167.84 163.36 168.04 163.57 168.15L201.4 190C201.517 190.062 201.648 190.09 201.78 190.08Z" fill="black"/>
<path d="M236.07 169.26L202.16 190C202.044 190.065 201.913 190.096 201.78 190.09C201.647 190.097 201.515 190.066 201.4 190L163.57 168.16C163.36 168.05 163.36 167.85 163.57 167.73L197.5 147L236.07 169.26Z" fill="#6C5CE7"/>
<path opacity="0.2" d="M236.07 169.26V170L202.16 190.72C202.044 190.785 201.913 190.816 201.78 190.81V190.06C201.913 190.066 202.044 190.035 202.16 189.97L236.07 169.26Z" fill="black"/>
<path d="M236.07 179.13V169.28L235.56 169.63V179.43L236.07 179.13Z" fill="#6C5CE7"/>
<path opacity="0.2" d="M236.07 179.13V169.28L235.56 169.63V179.43L236.07 179.13Z" fill="black"/>
<path d="M234.85 169.11C234.949 169.068 235.035 169.001 235.098 168.915C235.161 168.828 235.2 168.726 235.21 168.62V167.85L198 146.85C197.73 146.72 197.435 146.653 197.135 146.653C196.836 146.653 196.54 146.72 196.27 146.85L162.83 166.16L201.42 188.42L234.85 169.11Z" fill="#6C5CE7"/>
<path opacity="0.2" d="M234.85 169.11C234.949 169.068 235.035 169.001 235.098 168.915C235.161 168.828 235.2 168.726 235.21 168.62V167.85L198 146.85C197.73 146.72 197.435 146.653 197.135 146.653C196.836 146.653 196.54 146.72 196.27 146.85L162.83 166.16L201.42 188.42L234.85 169.11Z" fill="black"/>
<path d="M234.85 168.36C235.33 168.09 235.33 167.64 234.85 167.36L198 146.09C197.73 145.96 197.435 145.893 197.135 145.893C196.836 145.893 196.54 145.96 196.27 146.09L162.83 165.4L201.42 187.66L234.85 168.36Z" fill="#6C5CE7"/>
<path opacity="0.5" d="M234.85 168.36C235.33 168.09 235.33 167.64 234.85 167.36L198 146.09C197.73 145.96 197.435 145.893 197.135 145.893C196.836 145.893 196.54 145.96 196.27 146.09L162.83 165.4L201.42 187.66L234.85 168.36Z" fill="black"/>
<path d="M170.53 160.35L195.28 146.07C195.549 145.932 195.848 145.86 196.15 145.86C196.453 145.86 196.751 145.932 197.02 146.07L231.02 165.69L234.24 163.81V167.63H234.18C234.29 167.87 234.18 168.12 233.89 168.31L205.51 184.7L166.92 162.44V158.27L170.53 160.35Z" fill="#EBEBEB"/>
<path d="M233.87 164.17C233.974 164.133 234.063 164.066 234.127 163.976C234.19 163.886 234.224 163.779 234.224 163.67C234.224 163.56 234.19 163.453 234.127 163.363C234.063 163.274 233.974 163.206 233.87 163.17L197 141.9C196.731 141.762 196.433 141.69 196.13 141.69C195.828 141.69 195.529 141.762 195.26 141.9L166.9 158.27L205.49 180.54L233.87 164.17Z" fill="#FAFAFA"/>
<path d="M205.51 180.54V184.7L166.92 162.44V158.27L205.51 180.54Z" fill="#E6E6E6"/>
<path d="M205.05 178.91C205.151 178.963 205.259 179 205.37 179.02C205.537 179.064 205.713 179.064 205.88 179.02C205.921 179.019 205.961 179.012 206 179C206.26 178.86 206.23 178.6 205.93 178.43C205.791 178.355 205.638 178.311 205.48 178.3C205.295 178.276 205.107 178.307 204.94 178.39C204.924 178.386 204.907 178.386 204.89 178.39C204.73 178.53 204.77 178.75 205.05 178.91Z" fill="#263238"/>
<path d="M200.68 182.17C200.657 182.686 200.813 183.195 201.12 183.61C201.268 183.797 201.456 183.947 201.671 184.05C201.886 184.152 202.122 184.204 202.36 184.2C202.785 184.188 203.199 184.064 203.56 183.84L203.78 183.71L203.29 183.43C202.11 184.09 201.17 183.53 201.17 182.17C201.212 181.427 201.427 180.705 201.798 180.06C202.17 179.416 202.688 178.868 203.31 178.46C203.539 178.285 203.815 178.184 204.103 178.169C204.39 178.155 204.675 178.229 204.92 178.38C205.137 178.535 205.293 178.762 205.36 179.02C205.527 179.064 205.703 179.064 205.87 179.02C205.812 178.742 205.689 178.481 205.51 178.26C205.362 178.075 205.173 177.926 204.958 177.826C204.743 177.725 204.508 177.675 204.27 177.68C203.842 177.691 203.425 177.815 203.06 178.04C202.363 178.489 201.783 179.098 201.369 179.816C200.955 180.535 200.719 181.342 200.68 182.17Z" fill="#263238"/>
<path d="M201.93 178.23L235.21 162V162.54C235.199 162.689 235.155 162.834 235.08 162.964C235.006 163.094 234.903 163.205 234.78 163.29L201.93 179V178.23Z" fill="#6C5CE7"/>
<path opacity="0.2" d="M201.93 178.23L235.21 162V162.54C235.199 162.689 235.155 162.834 235.08 162.964C235.006 163.094 234.903 163.205 234.78 163.29L201.93 179V178.23Z" fill="black"/>
<path d="M234.85 162.46C235.33 162.19 235.33 161.74 234.85 161.46L198 140.19C197.733 140.052 197.436 139.98 197.135 139.98C196.834 139.98 196.538 140.052 196.27 140.19L162.83 156.24L201.42 178.51L234.85 162.46Z" fill="#6C5CE7"/>
<path d="M201.42 188.41L162.83 166.15V156.23L201.42 178.51V188.41Z" fill="#6C5CE7"/>
<path opacity="0.1" d="M201.42 188.41L162.83 166.15V156.23L201.42 178.51V188.41Z" fill="black"/>
<path d="M193.81 182.05C194.05 182.053 194.287 182.001 194.503 181.899C194.72 181.797 194.91 181.647 195.06 181.46C195.364 181.043 195.518 180.536 195.5 180.02C195.458 179.189 195.218 178.38 194.8 177.66C194.383 176.94 193.8 176.33 193.1 175.88C192.736 175.654 192.318 175.53 191.89 175.52C190.89 175.52 190.21 176.33 190.21 177.52C190.248 178.351 190.485 179.161 190.901 179.881C191.317 180.601 191.9 181.211 192.6 181.66C192.965 181.885 193.382 182.009 193.81 182.02V182.05Z" fill="#455A64"/>
<path d="M195 180C195 181.37 194 181.92 192.85 181.24C192.227 180.833 191.708 180.286 191.336 179.641C190.964 178.996 190.75 178.273 190.71 177.53C190.71 176.16 191.71 175.61 192.85 176.29C193.473 176.698 193.991 177.246 194.365 177.89C194.738 178.534 194.955 179.257 195 180Z" fill="#F5F5F5"/>
<path d="M187.22 175.05V175.8C187.22 177.3 186.16 177.91 184.86 177.16L168.14 167.5C167.454 167.052 166.883 166.45 166.473 165.741C166.063 165.032 165.826 164.237 165.78 163.42V162.67C165.78 161.17 166.84 160.56 168.14 161.31L184.86 171C185.543 171.443 186.112 172.04 186.522 172.744C186.932 173.447 187.171 174.237 187.22 175.05Z" fill="#F5F5F5"/>
<path d="M201.94 188.12V178.26L201.42 178.51V188.41L201.94 188.12Z" fill="#6C5CE7"/>
<path opacity="0.2" d="M201.94 188.12V178.26L201.42 178.51V188.41L201.94 188.12Z" fill="black"/>
<path d="M216.55 138.73C210.55 136.99 189.17 131 182.67 128.9C178.14 127.43 175.67 126.39 175.58 122.48C175.46 118.84 180.86 89.03 182.81 81.68C184.53 75.24 191.31 70.37 197.13 70C199.08 76.44 200.05 91 194.93 95.52C193.03 103.09 190.81 116.86 190.81 116.86C190.81 116.86 201.76 122.55 210.45 126.74C214.79 128.83 220.6 130.74 224.06 131.1C226.81 131.39 231.74 132.68 232.79 133.65C235.321 136.221 237.68 138.957 239.85 141.84C240.85 143.45 243.16 146.72 239.85 147.77C236.85 148.72 234.37 147.43 231.91 145.77C230.758 144.94 229.663 144.035 228.63 143.06C226.179 143.327 223.705 142.839 221.54 141.66C219.67 140.57 216.55 138.73 216.55 138.73Z" fill="#FFA8A7"/>
<path d="M325.58 142.42L329.58 94.2698C329.62 93.4871 329.457 92.7074 329.107 92.0064C328.756 91.3055 328.23 90.7072 327.58 90.2698C326.868 89.9205 326.083 89.7456 325.29 89.7596C324.498 89.7735 323.719 89.9758 323.02 90.3498L270.3 120.79C269.603 121.244 269.013 121.842 268.567 122.544C268.122 123.246 267.833 124.036 267.72 124.86L263.72 173C263.679 173.783 263.842 174.563 264.192 175.264C264.543 175.965 265.069 176.563 265.72 177C266.436 177.343 267.222 177.513 268.016 177.498C268.809 177.482 269.588 177.281 270.29 176.91L323 146.48C323.696 146.027 324.287 145.431 324.732 144.73C325.177 144.03 325.466 143.242 325.58 142.42Z" fill="#E0E0E0"/>
<path d="M325.58 142.42L329.58 94.2698C329.62 93.4871 329.457 92.7074 329.107 92.0064C328.756 91.3055 328.23 90.7072 327.58 90.2698C326.868 89.9205 326.083 89.7456 325.29 89.7596C324.498 89.7735 323.719 89.9758 323.02 90.3498L270.3 120.79C269.599 121.224 269.01 121.816 268.58 122.52L276.78 127.25V173.16L323 146.48C323.696 146.027 324.287 145.431 324.732 144.73C325.177 144.03 325.466 143.242 325.58 142.42Z" fill="#FAFAFA"/>
<path d="M268.15 175.57L272.15 127.43C272.262 126.607 272.549 125.817 272.992 125.115C273.436 124.413 274.025 123.814 274.72 123.36L327.44 92.9197C328.74 92.1697 329.7 92.7797 329.58 94.2697L325.58 142.42C325.467 143.241 325.18 144.028 324.736 144.729C324.293 145.429 323.704 146.026 323.01 146.48L270.29 176.92C269 177.67 268 177.07 268.15 175.57Z" fill="#F0F0F0"/>
<path d="M295.36 136.94C295.509 135.648 295.93 134.403 296.595 133.286C297.261 132.169 298.155 131.206 299.22 130.46C301.15 129.34 302.55 130.46 302.35 132.9C302.202 134.193 301.782 135.441 301.117 136.559C300.451 137.678 299.556 138.643 298.49 139.39C296.56 140.5 295.16 139.41 295.36 136.94Z" fill="#6C5CE7"/>
<path d="M294.44 152.78L312.11 142.57L309.9 141.3L292.24 151.5L294.44 152.78Z" fill="#FAFAFA"/>
<path d="M315.58 166.07L299.8 175.18C299.494 175.347 299.148 175.427 298.8 175.41C298.5 175.402 298.207 175.326 297.94 175.19L290.94 171.19C290.672 171.013 290.45 170.775 290.293 170.495C290.137 170.214 290.05 169.901 290.04 169.58V169.21C290.04 168.61 290.45 168.36 290.98 168.66L295.17 171.08L296.11 171.62L295.9 170.56L292.26 151.56L294.46 152.84L312.13 142.64L316.34 164.52C316.37 164.823 316.315 165.129 316.18 165.403C316.046 165.677 315.838 165.908 315.58 166.07Z" fill="#F5F5F5"/>
<path d="M290.31 168.55L295.69 165.44L296.79 172.68L290.31 168.55Z" fill="#E0E0E0"/>
<path d="M294.44 152.78L292.24 151.5L295.88 170.5C296 171.08 295.67 171.32 295.15 171.02L291 168.62C290.47 168.32 290.06 168.57 290.06 169.17V169.54C290.07 169.861 290.157 170.175 290.313 170.455C290.47 170.735 290.692 170.974 290.96 171.15L297.96 175.15C298.227 175.287 298.521 175.362 298.82 175.37L294.44 152.78Z" fill="#EBEBEB"/>
<path d="M222.87 78.2798C221.87 80.3298 220.15 81.0898 217.15 81.2298C215.658 81.2325 214.181 80.9346 212.806 80.3539C211.432 79.7732 210.188 78.9216 209.15 77.8498L213 74.3998L217.47 78.2298L218.12 74.3198L222.87 78.2798Z" fill="#6C5CE7"/>
<path opacity="0.1" d="M222.87 78.2798C221.87 80.3298 220.15 81.0898 217.15 81.2298C215.658 81.2325 214.181 80.9346 212.806 80.3539C211.432 79.7732 210.188 78.9216 209.15 77.8498L213 74.3998L217.47 78.2298L218.12 74.3198L222.87 78.2798Z" fill="black"/>
<path d="M220.61 77C220.959 78.3035 221.041 79.6641 220.85 81C220.631 82.1888 220.103 83.2992 219.32 84.22C218.83 84.4883 218.285 84.6404 217.726 84.6647C217.168 84.6889 216.612 84.5847 216.1 84.36C215.195 83.4828 214.491 82.4196 214.037 81.2438C213.583 80.0681 213.39 78.8078 213.47 77.55L217.47 78.27L220.61 77Z" fill="#6C5CE7"/>
<path d="M219.32 84.1797C219.32 84.1797 222.44 111.06 222.5 113.18C222.56 115.3 219.11 122.77 217.27 122.72C215.43 122.67 212.27 115.54 212.34 113.59C212.41 111.64 216.1 84.2897 216.1 84.2897L219.32 84.1797Z" fill="#6C5CE7"/>
<path opacity="0.1" d="M216.1 84.3197C216.602 84.5823 217.164 84.7077 217.729 84.6831C218.295 84.6585 218.843 84.4848 219.32 84.1797V84.5997C218.839 84.9417 218.281 85.1613 217.696 85.2397C217.11 85.3181 216.515 85.2529 215.96 85.0497L216.1 84.3197Z" fill="black"/>
<path d="M217.51 78.2298L204.38 66.9998L204.47 63.5698C204.47 63.5698 202.6 63.9198 200.32 69.4698C202.202 74.7345 205.702 79.268 210.32 82.4198L213.49 77.5198L217.51 78.2298Z" fill="#E0E0E0"/>
<path d="M219.13 65.77C219.13 65.77 220.96 66.27 222.38 69.18C223.53 71.54 223.67 80.13 223.67 80.13L220.61 77L217.51 78.26C217.98 75.43 218.86 70.26 218.86 70.26L219.13 65.77Z" fill="#E0E0E0"/>
<path d="M197.13 69.9999C197.13 69.9999 190.76 69.5099 186.48 73.5099C182.2 77.5099 181.48 80.9399 179.73 91.0199C177.98 101.1 176.82 109.69 176.82 109.69C176.82 109.69 183.96 114.74 192.72 112.82L195.72 95.9899C197.354 92.7725 198.6 89.3719 199.43 85.8599C200.75 78.9999 199.24 72.2299 197.13 69.9999Z" fill="#E0E0E0"/>
</g>
<defs>
<clipPath id="clip0_21_2">
<rect width="388.692" height="341.492" fill="white" transform="translate(0.120117 0.522461)"/>
</clipPath>
</defs>
</svg>
